<?xml version="1.0" encoding="UTF-8" standalone="no"?>
<!-- Created with Inkscape (http://www.inkscape.org/) -->

<svg
   xmlns:dc="http://purl.org/dc/elements/1.1/"
   xmlns:cc="http://creativecommons.org/ns#"
   xmlns:rdf="http://www.w3.org/1999/02/22-rdf-syntax-ns#"
   xmlns:svg="http://www.w3.org/2000/svg"
   xmlns="http://www.w3.org/2000/svg"
   xmlns:sodipodi="http://sodipodi.sourceforge.net/DTD/sodipodi-0.dtd"
   xmlns:inkscape="http://www.inkscape.org/namespaces/inkscape"
   width="210mm"
   height="297mm"
   viewBox="0 0 210 297"
   version="1.1"
   id="svg8"
   inkscape:version="0.92.4 (5da689c313, 2019-01-14)"
   sodipodi:docname="flatrpc1.svg">
  <defs
     id="defs2">
    <inkscape:path-effect
       effect="perspective-envelope"
       up_left_point="36.308889,86.819537"
       up_right_point="39.63197,86.819537"
       down_left_point="31.309327,94.626834"
       down_right_point="44.631532,94.626834"
       id="path-effect28"
       is_visible="true"
       deform_type="perspective"
       horizontal_mirror="false"
       vertical_mirror="true"
       overflow_perspective="false" />
    <inkscape:path-effect
       effect="perspective-envelope"
       up_left_point="16.341111,80.647498"
       up_right_point="47.841243,80.645317"
       down_left_point="16.341111,113.51729"
       down_right_point="47.841243,113.51947"
       id="path-effect19"
       is_visible="true"
       deform_type="envelope_deformation"
       horizontal_mirror="true"
       vertical_mirror="false"
       overflow_perspective="false" />
  </defs>
  <sodipodi:namedview
     id="base"
     pagecolor="#ffffff"
     bordercolor="#666666"
     borderopacity="1.0"
     inkscape:pageopacity="0.0"
     inkscape:pageshadow="2"
     inkscape:zoom="3.959798"
     inkscape:cx="167.47879"
     inkscape:cy="696.1111"
     inkscape:document-units="mm"
     inkscape:current-layer="g4641"
     showgrid="false"
     inkscape:snap-bbox="true"
     inkscape:bbox-paths="true"
     inkscape:bbox-nodes="true"
     inkscape:snap-bbox-edge-midpoints="true"
     inkscape:snap-bbox-midpoints="true"
     inkscape:object-paths="true"
     inkscape:snap-intersection-paths="true"
     inkscape:snap-smooth-nodes="true"
     inkscape:snap-midpoints="true"
     inkscape:snap-object-midpoints="true"
     inkscape:snap-page="true"
     inkscape:window-width="1920"
     inkscape:window-height="1001"
     inkscape:window-x="0"
     inkscape:window-y="0"
     inkscape:window-maximized="1"
     showguides="true"
     inkscape:guide-bbox="true" />
  <metadata
     id="metadata5">
    <rdf:RDF>
      <cc:Work
         rdf:about="">
        <dc:format>image/svg+xml</dc:format>
        <dc:type
           rdf:resource="http://purl.org/dc/dcmitype/StillImage" />
        <dc:title></dc:title>
      </cc:Work>
    </rdf:RDF>
  </metadata>
  <g
     inkscape:label="Layer 1"
     inkscape:groupmode="layer"
     id="layer1">
    <g
       id="g83">
      <g
         id="g52">
        <g
           id="g4641"
           inkscape:export-filename="/home/gothack/flatrpc1.png"
           inkscape:export-xdpi="600"
           inkscape:export-ydpi="600">
          <g
             id="g4650"
             inkscape:export-filename="/home/gothack/flatrpc1.png"
             inkscape:export-xdpi="202.38"
             inkscape:export-ydpi="202.38">
            <rect
               y="89.655365"
               x="5.3290705e-15"
               height="40.21402"
               width="80.322693"
               id="rect54"
               style="fill:#333333;stroke-width:0.48408362" />
            <g
               aria-label="RPC"
               style="font-style:normal;font-variant:normal;font-weight:normal;font-stretch:normal;font-size:10.58333302px;line-height:1.25;font-family:sans-serif, Dual;-inkscape-font-specification:'sans-serif, Dual';letter-spacing:0px;word-spacing:0px;fill:#d4aa00;fill-opacity:1;stroke:none;stroke-width:0.26458332"
               id="text12"
               inkscape:path-effect="#path-effect28"
               transform="matrix(4.3103858,0,0,4.3103858,-122.01694,-282.87707)">
              <path
                 d="m 35.948315,92.634407 c 0.01383,-0.08046 0.02603,-0.159392 0.03665,-0.236843 0.01042,-0.07601 0.02564,-0.154727 0.0455,-0.235951 0,0 0.03474,-0.142117 0.03474,-0.142117 -0.0072,-0.02319 -0.01436,-0.04625 -0.02147,-0.06918 -0.0071,-0.02278 -0.01221,-0.05295 -0.0154,-0.09033 0.02745,-0.08825 0.04084,-0.145953 0.04065,-0.174477 0.0016,-0.03535 -9.91e-4,-0.06339 -0.0078,-0.08428 -0.0044,-0.02077 -0.0087,-0.04143 -0.01303,-0.06198 -0.0025,-0.02721 0.0043,-0.071 0.02009,-0.13077 0.0087,-0.03278 0.01964,-0.06527 0.03285,-0.09746 0.01709,-0.03825 0.02389,-0.07294 0.02055,-0.104181 0.01471,-0.05555 0.02371,-0.09815 0.02715,-0.128259 0.0057,-0.02985 0.0086,-0.05354 0.0088,-0.07119 0.0018,-0.0234 0.0024,-0.04664 0.002,-0.06973 0.0018,-0.02293 0.0058,-0.05419 0.01209,-0.09356 0.01708,-0.126163 0.04197,-0.247607 0.07422,-0.364591 0.03242,-0.117576 0.05538,-0.226179 0.06942,-0.326523 -0.01206,-0.02679 -0.01721,-0.05334 -0.01553,-0.07965 0.0036,-0.02608 0.0085,-0.04978 0.01458,-0.07115 0,0 0.01812,-0.0632 0.01812,-0.0632 0.0071,-0.0249 0.0083,-0.04548 0.0037,-0.06184 0,0 0.02439,-0.08435 0.02439,-0.08435 -0.0097,-0.02364 -0.01393,-0.05291 -0.01278,-0.08762 0.01015,-0.03428 0.01326,-0.0569 0.0094,-0.06814 -0.002,-0.01119 -0.007,-0.01863 -0.01476,-0.02234 -0.006,-0.0037 -0.01202,-0.0074 -0.01803,-0.01109 -0.0042,-0.0037 -0.0035,-0.01475 0.0021,-0.03303 0.0067,-0.0218 0.01576,-0.03982 0.02717,-0.05416 0.01135,-0.01426 0.02076,-0.03373 0.02822,-0.05831 0,0 0.0063,-0.02089 0.0063,-0.02089 -0.02269,-0.01038 -0.04454,-0.02588 -0.06547,-0.0464 -0.01798,-0.02373 -0.02966,-0.05559 -0.0351,-0.09529 0,0 0.01458,-0.04392 0.01458,-0.04392 0.0096,-0.02886 0.02181,-0.05581 0.03668,-0.08091 0.01472,-0.02485 0.02654,-0.05098 0.03552,-0.07835 0.0069,-0.02107 0.0088,-0.03899 0.0057,-0.05383 -5.13e-4,-0.01768 -0.0031,-0.03377 -0.0077,-0.0483 -0.0046,-0.01445 -0.0087,-0.03024 -0.01225,-0.04734 -0.002,-0.01699 -0.0019,-0.03525 1.55e-4,-0.05476 0.005,-0.0055 0.01,-0.01107 0.01496,-0.01659 0.0065,-0.0055 0.01115,-0.01237 0.01396,-0.02058 -0.01072,0 -0.0145,-0.0068 -0.01133,-0.0204 0.0041,-0.01619 0.0084,-0.03093 0.01302,-0.04424 0.01005,-0.02902 0.01983,-0.05509 0.02935,-0.0783 0.01031,-0.02551 0.01932,-0.04947 0.02708,-0.07194 0.02007,-0.0074 0.03851,-0.02101 0.05527,-0.0406 0.01885,-0.02183 0.0368,-0.04345 0.05386,-0.06485 0.01766,-0.02353 0.03507,-0.04449 0.05229,-0.06296 0.01847,-0.0183 0.03673,-0.02966 0.05488,-0.03419 0.0077,-0.03808 0.02073,-0.06674 0.0391,-0.08635 0.01956,-0.01943 0.03057,-0.03334 0.03315,-0.04186 0.0032,-0.0106 0.0031,-0.01904 -3.91e-4,-0.02534 -0.0028,-0.0084 -0.0026,-0.01776 5.67e-4,-0.02814 0.0013,-0.0041 0.0029,-0.0052 0.005,-0.0031 0.002,0.0021 0.0044,0.0031 0.007,0.0031 0.01334,0 0.02396,-0.0021 0.03184,-0.0062 0.0085,-0.0062 0.0156,-0.01234 0.02138,-0.01849 0.0058,-0.0061 0.01121,-0.01121 0.01635,-0.01528 0.0051,-0.0041 0.0107,-0.0051 0.01672,-0.0031 0,0 0.0079,0 0.0079,0 0.0032,-0.01614 0.0069,-0.02916 0.01108,-0.03911 0.0041,-0.0099 0.0089,-0.01976 0.01421,-0.02957 0.0066,-0.0098 0.01194,-0.01947 0.01593,-0.02913 0.0053,-0.0096 0.0091,-0.02109 0.01154,-0.03439 0,0 0.0032,-0.01133 0.0032,-0.01133 0.0087,-0.0038 0.0171,-0.01126 0.02524,-0.02246 0.0094,-0.01113 0.0174,-0.0222 0.02414,-0.03319 0.0072,-0.01275 0.01323,-0.02362 0.01814,-0.03262 0.0061,-0.009 0.01102,-0.01343 0.01474,-0.01343 0,0 0.0042,-0.01599 0.0042,-0.01599 0.0061,-0.02285 0.01187,-0.04024 0.0175,-0.05232 0.0056,-0.01199 0.01107,-0.02137 0.01647,-0.02815 0.0058,-0.0084 0.01057,-0.01517 0.01428,-0.0202 0.0037,-0.005 0.0066,-0.01168 0.0088,-0.01998 0,0 0.0013,-0.005 0.0013,-0.005 -0.006,0 -0.01229,-8.31e-4 -0.019,-0.0025 -0.0051,-0.0033 -0.0065,-0.009 -0.0043,-0.01723 0.0022,-0.0081 0.0049,-0.01383 0.0081,-0.01707 0,0 0.04776,0 0.04776,0 0,0 0.0072,-0.0145 0.0072,-0.0145 0.0036,-0.01438 7.37e-4,-0.02391 -0.0086,-0.02865 -0.0081,-0.0047 -0.01031,-0.01415 -0.0067,-0.02819 0,0 0.0059,-0.0093 0.0059,-0.0093 0.0066,-0.0031 0.01309,-0.0062 0.01963,-0.0092 0.0069,-0.0046 0.0115,-0.01149 0.01379,-0.02063 0.0034,-0.01362 0.0024,-0.02787 -0.0028,-0.04275 -0.0052,-0.01475 -0.0058,-0.02792 -0.0017,-0.03954 0.0056,0 0.01134,-7.28e-4 0.01728,-0.0022 0.0059,-0.0015 0.01,-0.0065 0.01214,-0.01511 0.0021,-0.0086 0.0023,-0.01569 3.86e-4,-0.02135 -4.22e-4,-0.0071 -0.0014,-0.01408 -0.0029,-0.02108 0,0 0.01405,-0.01667 0.01405,-0.01667 0.0052,-0.0165 0.0076,-0.03217 0.007,-0.04701 8.49e-4,-0.01604 9.89e-4,-0.03126 4.31e-4,-0.04569 -2.2e-4,-0.01559 -6.03e-4,-0.03039 -0.0011,-0.04442 8.29e-4,-0.01516 0.0032,-0.03018 0.0071,-0.04505 0,0 0.0058,-0.02205 0.0058,-0.02205 -0.0024,-0.0024 -0.0082,-0.0036 -0.01743,-0.0036 -0.0082,0 -0.01127,-0.0036 -0.0093,-0.01088 0.0036,-0.01319 0.01001,-0.02568 0.01924,-0.03749 -0.0075,-0.0059 -0.0142,-0.01054 -0.02024,-0.01404 -0.006,-0.0035 -0.01057,-0.01045 -0.01361,-0.02082 -3.6e-5,-0.0069 4.23e-4,-0.01372 0.0014,-0.02053 0.0019,-0.0068 0.0022,-0.01297 8.76e-4,-0.01858 -0.0063,-0.01558 -0.01603,-0.02881 -0.02926,-0.03974 -0.0128,-0.01193 -0.0226,-0.02537 -0.02942,-0.04028 0,0 0.0069,-0.02207 0.0069,-0.02207 -0.0072,-0.001 -0.01304,-0.0037 -0.01738,-0.0078 0,0 -0.0091,-0.01548 -0.0091,-0.01548 -0.0027,-0.0061 -0.0062,-0.01124 -0.01041,-0.01531 -0.0043,-0.0041 -0.0101,-0.0061 -0.01756,-0.0061 0,0 -0.0094,0.003 -0.0094,0.003 0.0028,-0.0081 0.0049,-0.01561 0.0063,-0.02261 0.0018,-0.008 0.0012,-0.01438 -0.0017,-0.0193 -0.01356,0.002 -0.02322,0.002 -0.02895,0 -0.0045,-0.0029 -0.0072,-0.0069 -0.0082,-0.01175 -6.37e-4,-0.0058 -6.42e-4,-0.01213 -1.8e-5,-0.01888 6.21e-4,-0.0067 -5.69e-4,-0.01339 -0.0036,-0.02004 -0.03844,-0.01507 -0.07829,-0.02766 -0.119603,-0.03784 -0.03973,-0.01101 -0.08246,-0.01648 -0.128449,-0.01648 -0.02299,0 -0.04687,0.0018 -0.07168,0.0055 -0.02442,0.0027 -0.04896,0.0082 -0.07369,0.01655 -0.01808,-0.0046 -0.03635,-0.0088 -0.05481,-0.01243 -0.01791,-0.0046 -0.03702,-0.0069 -0.05738,-0.0069 -0.01159,0.0064 -0.02404,0.01191 -0.03735,0.01651 -0.01247,0.0046 -0.02542,0.0093 -0.03887,0.01392 -0.01205,0.0037 -0.02441,0.008 -0.03708,0.01265 -0.01182,0.0047 -0.02335,0.0104 -0.0346,0.01705 -0.0083,0.0048 -0.01779,0.01438 -0.02845,0.0289 -0.0093,0.0137 -0.01895,0.02505 -0.02903,0.03401 0,0 -0.02641,0.009 -0.02641,0.009 -0.0084,0.006 -0.01512,0.01312 -0.02018,0.02125 -0.0044,0.0072 -0.01065,0.01486 -0.01862,0.02313 0,0 -0.01435,0.0094 -0.01435,0.0094 -0.02221,0.02632 -0.04097,0.05312 -0.05619,0.08043 -0.01453,0.02783 -0.03258,0.05504 -0.05424,0.08159 -0.01259,0.01522 -0.02343,0.02762 -0.03247,0.03714 -0.0081,0.0096 -0.01673,0.02163 -0.02597,0.03623 -0.01716,0.02712 -0.03411,0.05472 -0.05082,0.08281 -0.01702,0.02859 -0.03832,0.05638 -0.06401,0.08328 0.0054,0.0068 0.0052,0.01568 -6.3e-4,0.02667 -0.0059,0.01107 -0.01072,0.02221 -0.01449,0.03343 -0.0024,0.0056 -0.0019,0.0092 0.0016,0.01059 0.0035,0.0014 0.0076,0.0028 0.01225,0.0043 0.0055,0 0.01005,7.14e-4 0.01359,0.0021 0.0035,0.0014 0.0031,0.0057 -0.0013,0.01284 -0.01131,0.01294 -0.0237,0.02308 -0.03716,0.03036 -0.01352,0.0073 -0.02673,0.01318 -0.03962,0.01759 -0.01087,0.0029 -0.02119,0.0059 -0.03097,0.0089 -0.0089,0.0015 -0.01518,0.0052 -0.01899,0.01115 -0.01152,0.01799 -0.01592,0.02933 -0.01312,0.03388 0.004,0.0046 0.0084,0.0084 0.01335,0.01145 0.0071,0.0015 0.0125,0.0038 0.01633,0.0069 0.0059,0.0015 0.0046,0.0093 -0.0041,0.02321 -0.01073,0.01722 -0.01751,0.02906 -0.02029,0.0354 -6.3e-4,0.0048 -2.71e-4,0.008 0.0011,0.0096 0.0025,0.0016 0.0045,0.0032 0.0058,0.0048 0.0025,0.0016 0.002,0.0072 -0.0016,0.0169 -0.02057,-0.0048 -0.04473,8.1e-4 -0.07271,0.01707 0,0 -0.0093,0.01476 -0.0093,0.01476 -0.0063,0.0099 -0.01085,0.01904 -0.01373,0.02738 -0.0017,0.0084 -0.0039,0.01764 -0.0067,0.0278 -0.0017,0.0085 -0.0057,0.01963 -0.01187,0.03341 -0.0039,0.01214 -0.01194,0.02787 -0.02407,0.04729 -0.01675,0.0268 -0.03556,0.0549 -0.0565,0.08435 -0.02009,0.02803 -0.03791,0.05647 -0.05342,0.08534 -0.0099,0.01167 -0.02053,0.02243 -0.03191,0.03225 -0.0089,0.0079 -0.01843,0.01683 -0.02865,0.02679 -0.009,0.008 -0.01931,0.01807 -0.03097,0.0302 -0.0091,0.01017 -0.01888,0.02347 -0.02937,0.03996 -0.0079,0.01871 -0.01583,0.03866 -0.02386,0.05986 -0.0163,0.04091 -0.04126,0.08819 -0.07527,0.142273 -0.01153,0.01834 -0.02388,0.03684 -0.03705,0.0555 -0.01179,0.01646 -0.02575,0.03067 -0.04185,0.04259 8.82e-4,0.01679 -0.0095,0.04588 -0.03143,0.08777 -0.0193,0.04016 -0.04367,0.08623 -0.07336,0.138548 -0.0287,0.05084 -0.05804,0.102829 -0.08806,0.156001 -0.02733,0.05151 -0.04807,0.09383 -0.06189,0.126438 -0.02855,0.01497 -0.06259,0.04367 -0.102509,0.08659 -0.04063,0.04368 -0.07434,0.08654 -0.100904,0.128516 -0.01034,0.01633 -0.01842,0.03442 -0.02422,0.0543 -0.0059,0.02004 -0.01835,0.04531 -0.03763,0.07596 -0.01298,0.02064 -0.02843,0.0397 -0.04636,0.05715 -0.01582,0.01405 -0.03497,0.03881 -0.05762,0.0746 -0.02759,0.04359 -0.04383,0.07489 -0.04843,0.09348 -4.62e-4,0.01496 -0.0069,0.03946 -0.0193,0.07374 -0.03634,0.03472 -0.072,0.07972 -0.107141,0.135509 -0.05145,0.08167 -0.101912,0.157228 -0.151131,0.226095 -0.05041,0.07053 -0.09186,0.131376 -0.123828,0.181892 -0.02063,0.03259 -0.03497,0.05844 -0.04291,0.07739 -0.006,0.01906 -0.01045,0.03584 -0.01344,0.05029 0,0 -0.0075,0.03644 -0.0075,0.03644 2.2e-5,0.0098 -0.0061,0.02454 -0.01847,0.0443 -0.01868,0.02989 -0.03962,0.06006 -0.06286,0.09052 -0.02347,0.03077 -0.04342,0.05922 -0.05977,0.08531 -0.03982,0.06351 -0.07252,0.117404 -0.09777,0.161173 -0.02558,0.04436 -0.06458,0.09782 -0.117463,0.160817 0.0033,0.0232 -0.01112,0.06419 -0.0437,0.123626 -0.03087,0.06048 -0.06962,0.128252 -0.116594,0.20371 -0.04158,0.07062 -0.08608,0.145975 -0.133648,0.226334 -0.04431,0.07524 -0.07713,0.137977 -0.09798,0.187523 -0.0035,-0.01423 -0.01219,-0.01423 -0.02598,0 -0.0094,0.0072 -0.02206,0.02148 -0.03796,0.04299 -0.01152,0.01443 -0.02761,0.0362 -0.04836,0.06543 -0.01378,0.02206 -0.02786,0.04054 -0.04221,0.0554 -0.02162,0.02238 -0.04009,0.03362 -0.05533,0.03362 -0.0127,0 -0.03095,0.01881 -0.05494,0.05671 -0.04378,0.06917 -0.09293,0.163338 -0.148104,0.284299 -0.05689,0.124721 -0.140183,0.275238 -0.25205,0.454234 -0.02873,0.04596 -0.05919,0.09243 -0.09143,0.13941 -0.02662,0.03795 -0.04902,0.07143 -0.06711,0.100335 0.0041,0.0584 -0.04317,0.167528 -0.144471,0.331186 0,0 0.04937,0 0.04937,0 0.0389,0 0.09991,-0.04148 0.181905,-0.123305 -0.09937,0.165168 -0.17849,0.309371 -0.235677,0.430308 -0.05188,0.112731 -0.112004,0.23991 -0.18092,0.382603 0.03616,-0.01213 0.08307,-0.04812 0.140275,-0.107434 0.04973,-0.04698 0.0974,-0.09351 0.143036,-0.139585 0.05487,-0.05698 0.104192,-0.102063 0.14822,-0.13559 0.05001,-0.04434 0.09173,-0.06635 0.125528,-0.06635 0.06711,-0.119221 0.131133,-0.224983 0.192403,-0.318109 0,0 0.1851,-0.268208 0.1851,-0.268208 0.05926,-0.08587 0.11595,-0.170056 0.170143,-0.252612 0.06084,-0.08988 0.113561,-0.177852 0.158409,-0.263987 0,0 0.01409,-0.0255 0.01409,-0.0255 0.04014,-0.03374 0.08143,-0.07968 0.123657,-0.137406 0.04603,-0.06497 0.08871,-0.128892 0.128118,-0.191794 0.04551,-0.06958 0.08156,-0.126627 0.108493,-0.171665 0.02914,-0.04451 0.05058,-0.07024 0.06455,-0.07754 0,0 0.01177,-0.02186 0.01177,-0.02186 0.03877,-0.072 0.06936,-0.135631 0.09205,-0.191287 0.02235,-0.05483 0.04979,-0.112192 0.08216,-0.17196 0.02832,-0.0523 0.05455,-0.09424 0.07884,-0.12617 0.02746,-0.03794 0.05451,-0.08168 0.08107,-0.131014 0,0 0.01872,-0.0727 0.01872,-0.0727 0,0 0.0126,-0.03578 0.0126,-0.03578 0.01602,-0.02954 0.02987,-0.05298 0.04159,-0.07045 0.01479,-0.02316 0.02992,-0.04903 0.04536,-0.07754 -0.03313,0 -0.03724,-0.0367 -0.01273,-0.108908 0.02398,-0.07065 0.05344,-0.137163 0.08823,-0.199745 0.0143,-0.02572 0.0302,-0.04869 0.04771,-0.06896 0.01948,-0.02015 0.03745,-0.04515 0.05388,-0.0749 0,0 0.04889,-0.04409 0.04889,-0.04409 0.04475,-0.08159 0.06448,-0.14486 0.06012,-0.190887 0.0051,-0.0091 0.01156,-0.01368 0.01946,-0.01368 0,0 0.0089,0 0.0089,0 0.0124,-0.0046 0.02331,-0.01364 0.03271,-0.02716 0.0094,-0.01348 0.01774,-0.02691 0.02508,-0.04028 0.0093,-0.0133 0.01848,-0.02655 0.02763,-0.03974 0.0091,-0.01312 0.01875,-0.02184 0.02885,-0.02619 0.03052,-0.05595 0.05702,-0.09407 0.0798,-0.115026 0.0245,-0.02081 0.05181,-0.04351 0.08186,-0.06808 0.01205,-0.03646 0.02764,-0.07245 0.04671,-0.107986 0.02066,-0.03509 0.04015,-0.06973 0.05849,-0.103938 0.01811,-0.03379 0.03323,-0.06531 0.04542,-0.09464 0.01575,-0.03262 0.02424,-0.06307 0.0256,-0.09141 0,0 0.07048,0 0.07048,0 0,0 0.02733,-0.04194 0.02733,-0.04194 0.01092,-0.02072 0.01833,-0.04128 0.02227,-0.06167 0.0056,-0.02024 0.0034,-0.03364 -0.0066,-0.04031 0.01609,-0.0364 0.02257,-0.06255 0.0196,-0.07876 -0.0029,-0.01611 -0.0024,-0.03689 0.0014,-0.06223 0.0069,-0.01257 0.01362,-0.02196 0.0203,-0.02821 0.0083,-0.0062 0.01656,-0.01243 0.02482,-0.01862 0.0082,-0.0062 0.01646,-0.01388 0.02467,-0.02309 0.0098,-0.0092 0.01796,-0.01983 0.02448,-0.03195 0,0 0.01215,-0.03154 0.01215,-0.03154 0,0 -0.03123,0 -0.03123,0 -0.01121,0 -0.0087,-0.01488 0.0075,-0.04436 0.01914,-0.0349 0.0427,-0.0693 0.07058,-0.103212 0.0031,0.0028 0.01317,-0.0014 0.0301,-0.01259 0.01832,-0.01391 0.03805,-0.02912 0.05914,-0.04559 0.02238,-0.01907 0.04311,-0.03664 0.06223,-0.05275 0.01898,-0.01599 0.0313,-0.02658 0.03707,-0.03186 -0.0011,0.0079 -0.0058,0.01986 -0.01415,0.03588 -0.007,0.01343 -0.0059,0.02018 0.0032,0.02018 0.02436,-0.02953 0.04525,-0.04813 0.06286,-0.05606 0.01905,-0.0079 0.03606,-0.01183 0.05108,-0.01183 0,0 0.04955,0 0.04955,0 0.01779,-0.0026 0.0367,-0.0092 0.05667,-0.01959 -0.01683,0.04465 -0.02277,0.07939 -0.01752,0.103757 0.0068,0.02463 0.018,0.04535 0.03352,0.06206 0.0169,0.01402 0.0339,0.02812 0.051,0.04231 0.02003,0.01141 0.03373,0.02863 0.04109,0.05179 0.0075,-0.01739 0.01759,-0.03179 0.03033,-0.04324 0.01425,-0.0114 0.02759,-0.01708 0.04008,-0.01708 0,0 0.01988,0.0085 0.01988,0.0085 -0.01265,0.02288 -0.0262,0.04598 -0.04068,0.0693 -0.01339,0.0206 -0.02511,0.04286 -0.03517,0.06684 -0.01399,0.03336 -0.01811,0.05483 -0.0122,0.0641 0.0072,0.0062 0.0073,0.02174 2.53e-4,0.04683 -0.01278,0.01898 -0.02633,0.03971 -0.04066,0.06223 -0.01143,0.01946 -0.02127,0.03907 -0.0295,0.05884 -0.0083,0.01992 -0.0091,0.02994 -0.0023,0.02994 0.0034,0 0.0058,-0.0017 0.0072,-0.005 0.0014,-0.0034 0.0038,-0.005 0.0072,-0.005 0.01936,-0.02652 0.03886,-0.04132 0.05865,-0.0446 0.02107,-0.0065 0.04088,-0.01632 0.05939,-0.02931 -0.03858,0.119298 -0.07571,0.242607 -0.111249,0.370093 -0.03579,0.129881 -0.08134,0.272323 -0.137591,0.4288 0.01214,0.03938 0.01072,0.09495 -0.0046,0.167643 -0.014,0.06978 -0.03444,0.141209 -0.06154,0.214341 0.0051,0.0198 0.0095,0.04722 0.01325,0.08247 0.0057,0.03054 0.0076,0.06913 0.0056,0.116054 -9.7e-5,0.0423 -0.0034,0.08517 -0.01005,0.128602 -0.0045,0.04402 -0.01364,0.08584 -0.02739,0.12535 -0.01593,0.04573 -0.03329,0.08917 -0.05211,0.130228 -0.01696,0.0356 -0.03165,0.0776 -0.04408,0.126233 0,0 0.0083,0.05555 0.0083,0.05555 -0.02123,0.08182 -0.0454,0.162325 -0.07257,0.241353 -0.02777,0.08079 -0.05129,0.16342 -0.07039,0.247938 -0.01979,0 -0.04083,0.0036 -0.06315,0.01077 -0.01988,0.0072 -0.04618,0.03594 -0.07921,0.08672 0,0 -0.0078,0.02201 -0.0078,0.02201 -0.01846,0.05182 -0.02932,0.09303 -0.03242,0.12329 0,0 -0.0017,0.09222 -0.0017,0.09222 -5.71e-4,0.03123 -0.0038,0.06667 -0.0098,0.10642 -6.19e-4,0.03209 -0.01074,0.07664 -0.03057,0.134062 0,0 -0.03466,0.100394 -0.03466,0.100394 0.0054,0 0.008,0.0043 0.0077,0.01281 0.0025,0.0086 0.0064,0.01285 0.01182,0.01285 0.02165,0 0.04498,-0.01701 0.06982,-0.05083 0.02732,-0.03353 0.04758,-0.0502 0.06094,-0.0502 0.0053,0 0.0066,0.0083 0.0038,0.02501 -0.0028,0.01678 -0.007,0.03361 -0.01251,0.05051 0,0 -0.04139,0.06404 -0.04139,0.06404 -0.01674,0.02589 -0.02803,0.0476 -0.03382,0.06505 -0.02341,0.07053 -0.03606,0.142267 -0.03768,0.21525 -0.0017,0.07426 -0.01942,0.164155 -0.05391,0.270637 -0.02562,0.07909 -0.04481,0.129257 -0.05727,0.149491 -0.0061,0.09217 -0.0011,0.165178 0.01533,0.218061 0.01658,0.0535 0.01573,0.134944 -0.003,0.245806 0,0 -0.07431,0.241661 -0.07431,0.241661 -0.0013,0.03553 0.0044,0.0534 0.0172,0.0534 0.01238,0.01202 0.025,0.01805 0.03783,0.01805 0.01245,0.01207 0.01995,0.03011 0.02248,0.0542 0.0058,0.0243 0.0013,0.06709 -0.01357,0.12887 0.06271,-0.0248 0.128784,-0.07405 0.197683,-0.147016 0.07108,-0.07189 0.133297,-0.107437 0.187446,-0.107437 0,0 0.02867,0 0.02867,0 0.01578,-0.01186 0.03274,-0.04706 0.05072,-0.105089 0.01781,-0.05739 0.03383,-0.114097 0.04811,-0.170125 0.01411,-0.05536 0.0282,-0.104631 0.04231,-0.147985 0.01699,-0.04295 0.03449,-0.06427 0.05263,-0.06427 0,0 0.02722,0 0.02722,0 0,0 0.0079,-0.03178 0.0079,-0.03178 0.02071,-0.08373 0.03134,-0.150636 0.03215,-0.201434 8.05e-4,-0.05022 0.0087,-0.104811 0.02344,-0.163592 0.05486,-0.218264 0.111915,-0.323356 0.173189,-0.323356 0,0 -2.54e-4,1.65e-4 -2.54e-4,1.65e-4 z m 0.888394,-4.686816 c -0.0032,0.01064 -0.0086,0.02403 -0.01599,0.04023 -0.0069,0.01451 -0.01459,0.01907 -0.02292,0.0136 -0.0036,0.0036 -0.0069,0.0082 -0.0099,0.0137 -0.0024,0.0037 -0.0049,0.0055 -0.0074,0.0055 0.0018,-0.0019 0.0052,-0.0064 0.0099,-0.01374 0.0066,-0.0091 0.01287,-0.01726 0.01884,-0.02449 0.0065,-0.009 0.01208,-0.01704 0.01674,-0.02417 0.0059,-0.0071 0.0094,-0.01064 0.01066,-0.01064 0,0 -3e-6,0 -3e-6,0 z m -0.39205,-0.794979 c 0,0 -0.0029,0 -0.0029,0 -0.01745,0 -0.02097,-0.0098 -0.01065,-0.02924 0,0 0.0026,-0.0048 0.0026,-0.0048 0,0 0.02875,0 0.02875,0 0,0 -0.01775,0.03406 -0.01775,0.03406 z m 0.390229,0.380071 c -0.0072,0.02108 -0.01654,0.04171 -0.02794,0.06188 -0.01103,0.01895 -0.02275,0.03811 -0.03517,0.05748 -0.01142,0.0196 -0.02324,0.04019 -0.03548,0.06181 -0.01239,0.02189 -0.02376,0.04565 -0.03408,0.07134 -0.0194,0.01788 -0.03752,0.03678 -0.05434,0.0567 -0.017,0.02015 -0.03656,0.03711 -0.05866,0.0508 -0.006,0.02246 -0.0132,0.03992 -0.02153,0.05224 -0.0084,0.0124 -0.01677,0.0231 -0.02514,0.03207 -0.0084,0.009 -0.01749,0.01806 -0.02723,0.02715 -0.0085,0.0091 -0.01728,0.022 -0.02627,0.03867 -0.0032,-0.01113 -0.01242,-0.01667 -0.02752,-0.01667 -0.01385,0 -0.02931,0.0055 -0.04645,0.01667 -0.01724,0.0112 -0.03352,0.01682 -0.04876,0.01682 -0.0089,0 -0.01667,-0.0056 -0.02331,-0.01682 -0.01138,0 -0.02328,0.0056 -0.03574,0.01682 -0.01045,0.0094 -0.02177,0.02076 -0.034,0.03408 -0.01018,0.0115 -0.02172,0.02306 -0.03461,0.03469 -0.0108,0.0097 -0.02272,0.01464 -0.03569,0.01464 0,0 0.03509,-0.07778 0.03509,-0.07778 -0.01276,0.01133 -0.02428,0.01701 -0.0345,0.01701 -0.0115,0 -0.02104,-0.0028 -0.0286,-0.0085 -0.0075,-0.0057 -0.01766,-0.0085 -0.03038,-0.0085 -0.01781,0 -0.0379,0.0047 -0.06036,0.01417 -0.02129,0.0095 -0.04094,0.01428 -0.05888,0.01428 -0.01153,0 -0.01984,-0.0038 -0.02492,-0.01143 -0.0038,-0.0076 -0.0076,-0.01136 -0.0114,-0.01136 -0.0064,0 -0.01308,0.0019 -0.02014,0.0057 -0.0071,0.0038 -0.01381,0.0057 -0.0202,0.0057 0,0 0.006,-0.01136 0.006,-0.01136 0.0069,-0.01317 0.0156,-0.02252 0.02612,-0.02811 0.0033,-0.01113 0.0037,-0.02036 0.0013,-0.0277 -0.0015,-0.0091 -5.67e-4,-0.01915 0.0027,-0.03001 -0.0015,-0.009 -0.0025,-0.02331 -0.0032,-0.04281 0.0015,-0.02105 -8.59e-4,-0.03148 -0.007,-0.03148 0.0392,-0.04792 0.07086,-0.09461 0.09525,-0.140117 0.02378,-0.04437 0.04911,-0.0884 0.07589,-0.132087 0.0044,0.0045 0.01165,0.0015 0.02167,-0.0089 0.01109,-0.01033 0.02158,-0.02278 0.03147,-0.03732 0.01056,-0.01584 0.02009,-0.03083 0.02862,-0.04498 0.0092,-0.01542 0.01522,-0.02586 0.01812,-0.0314 0.0072,-0.01377 0.01382,-0.02946 0.01981,-0.04701 0.007,-0.01737 0.0074,-0.02929 0.0013,-0.03587 0.0095,-0.0079 0.01679,-0.01569 0.02196,-0.02347 0.0062,-0.0077 0.01165,-0.0161 0.01636,-0.02504 0.0057,-0.0089 0.01059,-0.01711 0.01456,-0.02465 0.005,-0.0075 0.01151,-0.01498 0.01954,-0.02242 0.0063,-0.0062 0.01236,-0.0099 0.01814,-0.01109 0.0058,-0.0012 0.01154,-0.0025 0.0173,-0.0037 0.0074,-0.0024 0.01359,-0.0055 0.01853,-0.0092 0.0066,-0.0049 0.01262,-0.01273 0.01813,-0.02356 0.0073,-0.01432 0.01724,-0.02498 0.02986,-0.03204 0.01256,-0.007 0.02578,-0.01344 0.03965,-0.01925 0.01382,-0.0058 0.02786,-0.01212 0.04213,-0.01901 0.01573,-0.008 0.02906,-0.01933 0.03995,-0.03395 0.01382,0.01236 0.02046,0.02881 0.01984,0.04949 0.0066,-0.0058 0.01419,-0.0092 0.02267,-0.01037 0.0085,-0.0012 0.01668,-0.0017 0.02462,-0.0017 0.0089,0 0.01689,-0.0011 0.02385,-0.0034 0.0075,-0.0034 0.01316,-0.0097 0.01712,-0.01877 0.0044,0.0079 0.01261,0.01306 0.02451,0.01534 0.01191,0.0023 0.02311,0.0052 0.0336,0.0086 0.01198,0.0023 0.02104,0.0069 0.02721,0.01385 0.0067,0.0058 0.0072,0.0169 0.0017,0.03341 0,0 0.0439,0 0.0439,0 -4.1e-4,0.01429 0.0016,0.0263 0.0061,0.03597 0.0055,0.0097 0.01261,0.01831 0.0212,0.02569 0.0086,0.0074 0.01752,0.01425 0.02668,0.02049 0.01023,0.0063 0.01902,0.01381 0.02638,0.02266 -0.01065,0.02171 -0.01887,0.04241 -0.02462,0.06207 -0.0043,0.01857 -0.0104,0.03937 -0.01839,0.0625 2.8e-4,0.0055 2.52e-4,0.01031 -8.5e-5,0.01445 -3.29e-4,0.0042 -0.0017,0.0097 -0.0041,0.01667 0,0 -2e-5,3e-6 -2e-5,3e-6 z m -0.452537,-0.260512 c -0.0039,0.0036 -0.0081,0.0077 -0.01259,0.01249 -0.0045,0.0048 -0.0078,0.009 -0.0096,0.0126 -0.002,0 -0.0038,-6.06e-4 -0.0051,-0.0018 -7.67e-4,-0.0024 -2.01e-4,-0.0054 0.0017,-0.009 0.0039,-0.0036 0.0081,-0.0078 0.01265,-0.01251 0.0045,-0.0047 0.008,-0.0095 0.01046,-0.01417 0.002,0 0.0034,0.0012 0.0042,0.0035 0.0014,0.0012 8.64e-4,0.0041 -0.0016,0.0089 0,0 -5e-6,1e-5 -5e-6,1e-5 z m -0.05299,0 c -0.0039,0.0036 -0.0084,0.0071 -0.01336,0.01071 -0.0043,0.0024 -0.0075,0.0036 -0.0095,0.0036 -0.0081,0 -0.0096,-0.0048 -0.0043,-0.01429 0,0 0.0019,-0.0036 0.0019,-0.0036 0,0 0.01197,-0.0053 0.01197,-0.0053 0.003,0 0.0054,0.0012 0.0071,0.0035 0.0024,0.0012 0.0044,0.003 0.0062,0.0053 0,0 -5e-6,3e-6 -5e-6,3e-6 z m -0.126228,1.065236 c -0.02269,0.03045 -0.04173,0.04584 -0.05689,0.04584 0,0 -0.0041,0 -0.0041,0 0,0 0.0017,-0.0132 0.0017,-0.0132 0.0077,-0.01747 0.01698,-0.02615 0.02789,-0.02615 0.01091,0 0.0214,-0.0022 0.03144,-0.0065 z"
                 style="font-style:normal;font-variant:normal;font-weight:normal;font-stretch:normal;font-family:'Military Document AOE';-inkscape-font-specification:'Military Document AOE';fill:#d4aa00;stroke-width:0.26458332"
                 id="path21"
                 inkscape:original-d="m 35.469226,94.012014 q -0.01033,-0.04651 -0.02584,-0.09302 -0.0155,-0.04651 -0.0155,-0.09819 v -0.06201 q -0.02584,-0.0155 -0.05168,-0.03101 -0.02584,-0.0155 -0.05168,-0.04134 0.01034,-0.06201 -0.0052,-0.08268 -0.0155,-0.02584 -0.04134,-0.04134 -0.02067,-0.0155 -0.04134,-0.03101 -0.02067,-0.02067 -0.02067,-0.06718 0,-0.02584 0.01033,-0.05168 0.0155,-0.03101 -0.01033,-0.05684 0,-0.04651 -0.01034,-0.07235 -0.0052,-0.02584 -0.0155,-0.04134 -0.01034,-0.02067 -0.02584,-0.04134 -0.01033,-0.02067 -0.02067,-0.05684 -0.04134,-0.118856 -0.04134,-0.237712 0,-0.124023 -0.03617,-0.237711 -0.05168,-0.03101 -0.06718,-0.06201 -0.01034,-0.03101 -0.01034,-0.05684 0,-0.02584 0,-0.05168 0,-0.03101 -0.02584,-0.05168 v -0.07235 q -0.04651,-0.03101 -0.07235,-0.07751 0,-0.04651 -0.02067,-0.06201 -0.0155,-0.0155 -0.04134,-0.02067 -0.02067,-0.0052 -0.04134,-0.01033 -0.0155,-0.0052 -0.0155,-0.03101 0,-0.03101 0.02067,-0.05168 0.02067,-0.02067 0.02067,-0.05684 v -0.02067 q -0.07751,-0.0155 -0.160197,-0.04651 -0.07751,-0.03617 -0.134358,-0.09819 v -0.04651 q 0,-0.04651 0.02067,-0.08785 0.02067,-0.04134 0.02067,-0.08785 0,-0.03617 -0.02584,-0.06201 -0.02067,-0.031 -0.05168,-0.05684 -0.03101,-0.02584 -0.06201,-0.05684 -0.02584,-0.03101 -0.04134,-0.06718 0.01034,-0.01033 0.02067,-0.02067 0.0155,-0.01033 0.0155,-0.02584 -0.03617,0 -0.04134,-0.02584 -0.0052,-0.03101 -0.0052,-0.05684 0,-0.05684 0.0052,-0.103353 0.0052,-0.05168 0.0052,-0.09819 0.06201,-0.0155 0.09819,-0.05684 0.04134,-0.04651 0.07751,-0.09302 0.03617,-0.05168 0.07751,-0.09302 0.04651,-0.04134 0.10852,-0.05168 -0.0155,-0.08785 0.03101,-0.134359 0.05168,-0.04651 0.05168,-0.06718 0,-0.02584 -0.02067,-0.04134 -0.02067,-0.02067 -0.02067,-0.04651 0,-0.01033 0.01033,-0.0052 0.01033,0.0052 0.02067,0.0052 0.05168,0 0.07751,-0.01033 0.02584,-0.0155 0.04134,-0.03101 0.0155,-0.0155 0.03101,-0.02584 0.0155,-0.01034 0.04134,-0.0052 h 0.02067 q -0.0052,-0.04134 0,-0.06718 0.0052,-0.02584 0.0155,-0.05168 0.0155,-0.02584 0.02067,-0.05168 0.01034,-0.02584 0.0052,-0.06201 v -0.02067 q 0.03101,-0.01034 0.05168,-0.04134 0.02584,-0.03101 0.04134,-0.06201 0.0155,-0.03617 0.02584,-0.06201 0.0155,-0.02584 0.03101,-0.02584 v -0.03101 q 0,-0.06718 0.01033,-0.103353 0.01034,-0.03617 0.02584,-0.05684 0.0155,-0.02584 0.02584,-0.04134 0.01034,-0.0155 0.01034,-0.04134 v -0.01034 q -0.02584,0 -0.05685,-0.0052 -0.02584,-0.01034 -0.02584,-0.03617 0,-0.02584 0.01034,-0.03617 h 0.139526 l 0.01033,-0.03101 q 0,-0.04651 -0.04651,-0.06201 -0.04134,-0.0155 -0.04134,-0.06201 l 0.01034,-0.02067 q 0.02584,-0.01033 0.05168,-0.02067 0.02584,-0.0155 0.02584,-0.04651 0,-0.04651 -0.04134,-0.09819 -0.04134,-0.05168 -0.03617,-0.09302 0.02584,0 0.05168,-0.0052 0.02584,-0.0052 0.02584,-0.03617 0,-0.03101 -0.0155,-0.05168 -0.01033,-0.02584 -0.02584,-0.05168 l 0.03101,-0.04134 q 0.0052,-0.06201 -0.0155,-0.118856 -0.0155,-0.06201 -0.03617,-0.118856 -0.02067,-0.06201 -0.04134,-0.118856 -0.0155,-0.06201 -0.0155,-0.124023 v -0.06201 q -0.0155,-0.01033 -0.06201,-0.01033 -0.04134,0 -0.04134,-0.03101 0,-0.05684 0.03101,-0.108521 -0.04651,-0.02584 -0.08268,-0.04134 -0.03617,-0.0155 -0.06718,-0.06201 -0.01034,-0.03101 -0.0155,-0.06201 0,-0.03101 -0.0155,-0.05684 -0.05684,-0.07235 -0.144694,-0.124024 -0.08785,-0.05684 -0.149862,-0.129191 v -0.07235 q -0.04134,-0.0052 -0.07235,-0.02584 -0.02584,-0.02584 -0.05168,-0.05168 -0.02584,-0.03101 -0.05684,-0.05168 -0.03101,-0.02067 -0.07235,-0.02067 l -0.03101,0.01033 q 0,-0.04134 -0.0052,-0.07752 -0.0052,-0.04134 -0.03101,-0.06718 -0.07235,0.01033 -0.10852,0 -0.03101,-0.0155 -0.04651,-0.04134 -0.0155,-0.03101 -0.02584,-0.06718 -0.01033,-0.03617 -0.04134,-0.07235 -0.253215,-0.08268 -0.516765,-0.139526 -0.258382,-0.06201 -0.527099,-0.06201 -0.134359,0 -0.268718,0.02067 -0.134358,0.0155 -0.253214,0.06201 -0.118856,-0.02584 -0.237712,-0.04651 -0.118855,-0.02584 -0.237711,-0.02584 -0.04651,0.03617 -0.108521,0.06201 -0.05684,0.02584 -0.118856,0.05168 -0.05684,0.02067 -0.113688,0.04651 -0.05168,0.02584 -0.09302,0.06201 -0.03101,0.02584 -0.04134,0.103353 -0.0052,0.07235 -0.03101,0.118856 l -0.07751,0.03101 q -0.02584,0.03101 -0.02584,0.07235 0,0.03617 -0.0155,0.07751 l -0.03101,0.03101 q -0.03101,0.129191 -0.02067,0.258382 0.0155,0.129191 -0.01034,0.248047 -0.0155,0.06718 -0.03101,0.108521 -0.01034,0.04134 -0.01034,0.103353 0,0.113688 0.0052,0.227376 0.0052,0.113688 -0.03617,0.217041 0.04651,0.02584 0.05168,0.06718 0.0052,0.04134 0.02067,0.08268 0.0052,0.02067 0.02584,0.02584 0.02067,0.0052 0.04651,0.01033 0.02584,0 0.04651,0.0052 0.02067,0.0052 0.02067,0.03101 -0.0155,0.04651 -0.05684,0.07235 -0.04134,0.02584 -0.08785,0.04134 -0.04134,0.01033 -0.07751,0.02067 -0.03617,0.0052 -0.03617,0.02584 0,0.06201 0.02584,0.07751 0.03101,0.0155 0.06201,0.02584 0.03617,0.0052 0.06201,0.0155 0.03101,0.0052 0.03101,0.05168 0,0.05684 0.0052,0.07751 0.01034,0.0155 0.02067,0.02067 0.0155,0.0052 0.02584,0.01034 0.0155,0.0052 0.02584,0.03617 -0.103353,-0.0155 -0.180868,0.03617 v 0.03101 q 0,0.03101 0.01034,0.05684 0.0155,0.02584 0.03101,0.05684 0.0155,0.02584 0.02584,0.06718 0.0155,0.03617 0.0155,0.09302 0,0.07752 -0.01034,0.160197 -0.01034,0.07752 0,0.155029 -0.01034,0.03101 -0.03101,0.05684 -0.0155,0.02067 -0.03101,0.04651 -0.0155,0.02067 -0.03101,0.05168 -0.01033,0.02584 -0.01033,0.06718 0.0155,0.04651 0.03617,0.09819 0.03617,0.09819 0.03617,0.222209 0,0.04134 -0.0052,0.08268 -0.0052,0.03617 -0.03617,0.06201 0.04134,0.03617 0.05684,0.124023 0.02067,0.08268 0.03101,0.186036 0.01034,0.09819 0.02067,0.19637 0.0155,0.09302 0.03617,0.149862 -0.06201,0.02584 -0.103353,0.09819 -0.04134,0.07235 -0.04134,0.139526 0,0.02584 0.02067,0.05684 0.02067,0.03101 0.02067,0.07751 0,0.03101 -0.02067,0.05684 -0.02067,0.02067 -0.02067,0.07235 0,0.06201 0.02067,0.08785 0.02584,0.02067 0.05168,0.06718 -0.04134,0.04651 -0.04134,0.118856 0,0.103353 -0.0155,0.186035 -0.0155,0.08268 -0.0155,0.139527 0,0.03617 0.01034,0.05684 0.0155,0.02067 0.03101,0.03617 0.0155,0.0155 0.02584,0.02584 0.0155,0.01034 0.0155,0.03101 0,0.03101 -0.01034,0.06201 -0.01034,0.03101 -0.01034,0.05684 0,0.06201 0.0052,0.103353 0.0052,0.04134 -0.02584,0.09819 0.04134,0.02067 0.05168,0.07235 0.0155,0.05168 0.0155,0.113688 0.0052,0.05684 0.01034,0.118856 0.0052,0.05684 0.02584,0.09302 -0.02584,-0.01034 -0.03617,0 -0.01034,0.0052 -0.0155,0.02067 -0.0052,0.01033 -0.01034,0.03101 0,0.0155 -0.01034,0.02584 -0.0155,0.0155 -0.04651,0.0155 -0.02584,0 -0.02584,0.02584 0,0.04651 0.04134,0.124024 0.04134,0.07751 0.04134,0.180867 0,0.02584 -0.0052,0.05168 -0.0052,0.02067 -0.0052,0.03617 0.07235,0.03101 0.07235,0.113688 h 0.05684 q 0.06718,0 0.124024,-0.04134 0,0.08268 0.02584,0.139527 0.02584,0.05168 0.05168,0.113688 0.04651,-0.0052 0.08268,-0.03101 0.03617,-0.02067 0.06718,-0.04134 0.03617,-0.02584 0.07751,-0.04134 0.04134,-0.02067 0.09819,-0.02067 0,-0.05684 0.0155,-0.103353 0.02067,-0.04651 0.04134,-0.09302 0.02067,-0.04651 0.03617,-0.09302 0.02067,-0.05168 0.0155,-0.103353 v -0.01034 q 0.04134,-0.02067 0.06201,-0.05684 0.02067,-0.04134 0.03101,-0.08268 0.0155,-0.04651 0.02067,-0.07752 0.01034,-0.03101 0.03101,-0.03617 v -0.01033 q 0,-0.05168 -0.0155,-0.09302 -0.0155,-0.04134 -0.0155,-0.08785 0,-0.04134 0.0155,-0.06718 0.0155,-0.03101 0.0155,-0.07235 l -0.03101,-0.04134 -0.01034,-0.02067 q 0,-0.02584 0.0052,-0.04134 0.0052,-0.02067 0.0052,-0.04651 -0.07751,0 -0.113688,-0.06718 -0.03617,-0.06718 -0.03617,-0.129191 0,-0.02584 0.0155,-0.04651 0.02067,-0.02067 0.02067,-0.05168 l 0.04134,-0.03101 q 0,-0.08785 -0.07751,-0.139526 0,-0.01034 0.02067,-0.01034 h 0.0155 q 0.02584,-0.0052 0.03101,-0.02067 0.0052,-0.0155 0.0052,-0.03101 0.0052,-0.0155 0.01033,-0.03101 0.0052,-0.0155 0.02584,-0.02067 0,-0.06718 0.03101,-0.09302 0.03617,-0.02584 0.08268,-0.05684 -0.02067,-0.04651 -0.02067,-0.09302 0.0052,-0.04651 0.0052,-0.09302 0,-0.04651 -0.01033,-0.08785 -0.0052,-0.04651 -0.04651,-0.08785 h 0.139527 l 0.01033,-0.04134 q 0,-0.03101 -0.02067,-0.06201 -0.0155,-0.03101 -0.05684,-0.04134 -0.01034,-0.05684 -0.04651,-0.08268 -0.03617,-0.02584 -0.06718,-0.06718 0,-0.02067 0.01034,-0.03101 0.0155,-0.01033 0.03101,-0.02067 0.0155,-0.01034 0.02584,-0.02584 0.0155,-0.0155 0.0155,-0.03617 l -0.01034,-0.03617 q -0.03101,0 -0.06718,0 -0.03617,0 -0.03617,-0.05168 0,-0.06201 0.03101,-0.124023 0.0155,0.0052 0.05168,-0.0155 0.03617,-0.02584 0.07751,-0.05684 0.04134,-0.03617 0.07752,-0.06718 0.03617,-0.031 0.04651,-0.04134 0.01033,0.0155 0.01033,0.04651 0,0.02584 0.03101,0.02584 0.03101,-0.05684 0.07751,-0.07235 0.05168,-0.0155 0.103352,-0.0155 0.05684,0 0.113689,0 0.05684,-0.0052 0.10852,-0.02584 0.0155,0.08785 0.07235,0.134359 0.06201,0.04651 0.139526,0.07751 0.07751,0.02584 0.15503,0.05168 0.08268,0.02067 0.139526,0.06201 0,-0.03101 0.02584,-0.05168 0.03101,-0.02067 0.07235,-0.02067 l 0.05168,0.01033 q -0.01034,0.04134 -0.02584,0.08268 -0.0155,0.03617 -0.0155,0.07751 0,0.05684 0.03101,0.07235 0.03101,0.01033 0.04134,0.05168 -0.0155,0.03101 -0.03101,0.06718 -0.01034,0.03101 -0.01034,0.06201 0,0.03101 0.02067,0.03101 0.01034,0 0.01034,-0.0052 0,-0.0052 0.01034,-0.0052 0.02584,-0.04134 0.08268,-0.04651 0.05684,-0.01033 0.09819,-0.03101 0.02584,0.186035 0.06718,0.366903 0.04134,0.1757 0.05168,0.366903 0.07235,0.04651 0.103353,0.129191 0.03101,0.07751 0.03101,0.155029 0.03101,0.02067 0.07235,0.05684 0.04134,0.03101 0.07751,0.07751 0.03617,0.04134 0.05684,0.08268 0.02584,0.04134 0.02584,0.07752 0,0.04134 -0.01034,0.07751 -0.01033,0.03101 0,0.07235 l 0.04134,0.03101 q 0.0155,0.06718 0.0155,0.129191 0,0.06201 0.02067,0.124024 -0.04134,0 -0.08268,0.0052 -0.03617,0.0052 -0.06718,0.04134 v 0.01034 q 0,0.03617 0.0155,0.05684 0.02067,0.02067 0.04134,0.04134 0.02067,0.02067 0.03617,0.04651 0.02067,0.02067 0.02067,0.05684 v 0.04134 q 0.01034,0 0.0155,0.0052 0.01034,0.0052 0.02067,0.0052 0.04134,0 0.06718,-0.02067 0.03101,-0.02067 0.05684,-0.02067 0.01034,0 0.0155,0.01033 0.0052,0.01034 0.0052,0.02067 -0.01034,0.01034 -0.02584,0.02584 -0.0155,0.0155 -0.0155,0.02584 0,0.04134 0.04134,0.08268 0.04134,0.04134 0.04134,0.09819 0,0.04134 -0.01033,0.05168 0.04134,0.04651 0.09819,0.07235 0.05684,0.02584 0.08268,0.07752 v 0.07235 q 0.0155,0.0155 0.03617,0.0155 0.02584,0.0052 0.04651,0.0052 0.02584,0.0052 0.04134,0.0155 0.02067,0.01034 0.02584,0.03617 0.08785,-0.01033 0.165364,-0.04134 0.08268,-0.03101 0.170533,-0.03101 h 0.03101 q 0.02067,-0.0052 0.02584,-0.03101 0.0052,-0.02584 0.0052,-0.05168 0,-0.02584 0.0052,-0.04651 0.01034,-0.02067 0.04134,-0.02067 h 0.03101 v -0.01033 q 0,-0.04134 -0.02067,-0.06718 -0.02067,-0.02584 -0.02067,-0.05684 0,-0.118856 0.113688,-0.118856 z M 34.8026,89.970917 q 0,0.03101 -0.01033,0.07752 -0.01033,0.04134 -0.05168,0.02584 -0.01034,0.01033 -0.0155,0.02584 -0.0052,0.01033 -0.0155,0.01033 0.0052,-0.0052 0.0155,-0.02584 0.0155,-0.02584 0.03101,-0.04651 0.0155,-0.02584 0.02584,-0.04651 0.0155,-0.02067 0.02067,-0.02067 z m -2.253092,-1.968872 h -0.01034 q -0.09302,0 -0.09302,-0.09302 v -0.0155 h 0.103353 z m 1.850016,1.059367 q 0,0.07751 -0.02067,0.149861 -0.02067,0.06718 -0.04651,0.134359 -0.02067,0.06718 -0.04134,0.139526 -0.02067,0.07235 -0.02584,0.15503 -0.05684,0.05684 -0.09819,0.118856 -0.04134,0.06201 -0.113688,0.103352 0.01033,0.06718 -0.0052,0.103353 -0.0155,0.03617 -0.03617,0.06201 -0.02067,0.02584 -0.04651,0.05168 -0.02067,0.02584 -0.03101,0.07235 -0.03101,-0.03101 -0.09302,-0.03101 -0.05684,0 -0.10852,0.03101 -0.05168,0.03101 -0.113688,0.03101 -0.03617,0 -0.08268,-0.03101 -0.04651,0 -0.07751,0.03101 -0.02584,0.02584 -0.05168,0.06201 -0.02067,0.03101 -0.05168,0.06201 -0.02584,0.02584 -0.07751,0.02584 v -0.139526 q -0.03101,0.031 -0.07235,0.031 -0.04651,0 -0.08785,-0.0155 -0.04134,-0.0155 -0.09302,-0.0155 -0.07235,0 -0.144694,0.02584 -0.06718,0.02584 -0.139526,0.02584 -0.04651,0 -0.08268,-0.02067 -0.03101,-0.02067 -0.04651,-0.02067 -0.02584,0 -0.04651,0.01033 -0.02067,0.01033 -0.04651,0.01033 v -0.02067 q 0,-0.03617 0.03101,-0.05168 -0.01034,-0.03101 -0.03617,-0.05168 -0.02584,-0.02584 -0.03617,-0.05684 -0.02584,-0.02584 -0.07235,-0.08268 -0.04134,-0.06201 -0.06718,-0.06201 0.05684,-0.144694 0.05684,-0.289388 0,-0.144694 0.0155,-0.294556 0.03101,0.0155 0.05168,-0.02067 0.02584,-0.03617 0.03617,-0.08785 0.01034,-0.05684 0.0155,-0.108521 0.0052,-0.05684 0.0052,-0.07751 0,-0.05168 -0.0155,-0.118856 -0.01034,-0.06718 -0.05684,-0.09302 0.02584,-0.03101 0.03101,-0.06201 0.01033,-0.031 0.01033,-0.06718 0.0052,-0.03617 0.0052,-0.06718 0.0052,-0.03101 0.02584,-0.06201 0.0155,-0.02584 0.04134,-0.03101 0.02584,-0.0052 0.05168,-0.01033 0.03101,-0.01034 0.04651,-0.02584 0.02067,-0.02067 0.02067,-0.06718 0,-0.06201 0.04651,-0.09302 0.04651,-0.03101 0.103352,-0.05684 0.05684,-0.02584 0.113689,-0.05684 0.06201,-0.03617 0.08268,-0.103353 0.103353,0.05684 0.149862,0.149861 0.02067,-0.02584 0.06201,-0.031 0.04134,-0.0052 0.08268,-0.0052 0.04651,0 0.07751,-0.01033 0.03101,-0.0155 0.03101,-0.05684 0.04134,0.03617 0.108521,0.04651 0.06718,0.01034 0.129191,0.02584 0.06718,0.01033 0.113688,0.04134 0.04651,0.02584 0.05168,0.09819 h 0.149862 q 0.02584,0.06201 0.06718,0.103353 0.04651,0.04134 0.103353,0.07235 0.05684,0.03101 0.113688,0.05684 0.06201,0.02584 0.113688,0.06201 -0.0155,0.08785 -0.01033,0.165364 0.01033,0.07235 0.01033,0.160197 0.01034,0.02067 0.0155,0.03617 0.0052,0.0155 0.0052,0.04134 z M 32.549508,88.36378 q -0.01034,0.0155 -0.02067,0.03617 -0.01034,0.02067 -0.01034,0.03617 -0.01033,0 -0.02067,-0.0052 -0.01033,-0.01033 -0.01033,-0.02584 0.01033,-0.0155 0.02067,-0.03617 0.01033,-0.02067 0.01033,-0.04134 0.01034,0 0.02067,0.01034 0.01034,0.0052 0.01034,0.02584 z m -0.180868,0 q -0.01033,0.0155 -0.02584,0.03101 -0.0155,0.01033 -0.02584,0.01033 -0.04134,0 -0.04134,-0.04134 v -0.01034 l 0.03101,-0.0155 q 0.0155,0 0.03101,0.01033 0.0155,0.0052 0.03101,0.0155 z m 1.131714,2.294433 q -0.03617,0.07235 -0.09302,0.07235 h -0.01033 l -0.01034,-0.02067 q 0,-0.04134 0.04134,-0.04134 0.04134,0 0.07235,-0.01034 z"
                 inkscape:connector-curvature="0" />
              <path
                 d="m 38.627702,87.688407 c 0,0 -0.01366,-0.07196 -0.01366,-0.07196 -0.0056,-0.0059 -0.01171,-0.01753 -0.01829,-0.03487 -0.0054,-0.01717 -0.01103,-0.03557 -0.01684,-0.05516 -0.0057,-0.01936 -0.01129,-0.03782 -0.01666,-0.0554 -0.0055,-0.01872 -0.01074,-0.03262 -0.01558,-0.04182 0.01307,-0.0039 0.02009,-0.01175 0.02107,-0.02341 0.002,-0.01158 0.0013,-0.02371 -0.0021,-0.03638 -0.0026,-0.01382 -0.0062,-0.02752 -0.01086,-0.0411 -0.0036,-0.01346 -0.0042,-0.025 -0.002,-0.03464 -0.0041,0 -0.01095,-0.0042 -0.0206,-0.01257 -0.0088,-0.0095 -0.01817,-0.01954 -0.02808,-0.0301 -0.01004,-0.01164 -0.01871,-0.02147 -0.02605,-0.02951 -0.0075,-0.0091 -0.0122,-0.01369 -0.01417,-0.01369 -0.0019,-0.01131 4.48e-4,-0.01806 0.0069,-0.0203 0.0065,-0.0022 0.0089,-0.0084 0.0071,-0.01837 0,0 -0.0017,-0.0099 -0.0017,-0.0099 -0.0089,-0.0011 -0.01541,-0.0049 -0.01941,-0.01149 -0.004,-0.0065 -0.007,-0.01303 -0.009,-0.0195 -0.0022,-0.0075 -0.0047,-0.01392 -0.0075,-0.01924 -0.002,-0.0064 -0.0058,-0.0095 -0.01155,-0.0095 -0.0029,0 -0.01026,-0.0047 -0.02215,-0.01417 -0.01087,-0.0094 -0.02276,-0.0197 -0.03565,-0.03099 -0.01278,-0.01119 -0.02501,-0.0223 -0.03667,-0.03332 -0.01169,-0.01192 -0.01959,-0.01981 -0.02375,-0.02374 0,0 -0.0028,0 -0.0028,0 -0.0073,0 -0.01262,0.002 -0.01584,0.0059 -0.0032,0.0039 -0.0085,0.0059 -0.01591,0.0059 -0.0065,0 -0.01071,-9.89e-4 -0.01276,-0.003 -0.0027,-0.0079 -0.007,-0.01424 -0.01299,-0.01912 -0.006,-0.0049 -0.0094,-0.01163 -0.01023,-0.0203 0,0 -0.0011,-0.01147 -0.0011,-0.01147 -0.0133,0.0029 -0.02379,0.0019 -0.03144,-0.0028 -0.0067,-0.0047 -0.01287,-0.0137 -0.01843,-0.02679 0.0072,0 0.01281,-0.0019 0.01696,-0.0056 0.005,-0.0037 0.0082,-0.0083 0.0094,-0.01384 -0.0075,-0.0046 -0.01882,-0.0073 -0.03395,-0.0082 -0.01518,-0.0018 -0.02719,-0.0027 -0.03603,-0.0027 -0.0035,0 -0.0061,0.0014 -0.0077,0.0041 -0.0016,0.0027 -0.0027,0.0059 -0.0034,0.0096 -6.71e-4,0.0037 -0.0018,0.0074 -0.0033,0.01108 -7.33e-4,0.0028 -0.0033,0.0046 -0.0077,0.0056 -0.0049,-0.0074 -0.01221,-0.01112 -0.02201,-0.01112 -0.0089,0 -0.01685,0.0018 -0.02383,0.0056 -0.0061,0.0037 -0.01275,0.0056 -0.01991,0.0056 0,0 -0.01105,-0.01112 -0.01105,-0.01112 -0.008,9.29e-4 -0.01513,4.65e-4 -0.02141,-0.0014 -0.0063,-0.0018 -0.01253,-0.0041 -0.01879,-0.0069 -0.0054,-0.0028 -0.0107,-0.005 -0.01604,-0.0069 -0.0053,-0.0027 -0.01153,-0.0041 -0.0186,-0.0041 -0.01769,0 -0.03496,0.0023 -0.05187,0.0068 -0.01605,0.0037 -0.03305,0.0078 -0.05101,0.01241 -0.0042,-0.0055 -0.0094,-0.0092 -0.01555,-0.01103 -0.0061,-0.0018 -0.01184,-0.0027 -0.01716,-0.0027 -0.0062,0 -0.01642,4.6e-4 -0.03066,0.0014 -0.01425,9.21e-4 -0.02946,0.0028 -0.04565,0.0055 -0.01615,0.0018 -0.03102,0.0041 -0.04464,0.0069 -0.01364,0.0028 -0.02249,0.0065 -0.02655,0.01112 0,0 -0.0095,-0.01112 -0.0095,-0.01112 -0.0064,0.0018 -0.01346,0.0088 -0.02112,0.02093 0,0 -0.0027,0 -0.0027,0 -0.0045,0 -0.0074,-0.0019 -0.0088,-0.0056 -0.0012,-0.0047 -0.0041,-0.007 -0.0085,-0.007 -0.0027,0 -0.005,9.3e-4 -0.0071,0.0028 -2.34e-4,0.0019 -0.0012,0.0061 -0.0029,0.01263 -7.13e-4,0.0057 -0.0024,0.0085 -0.0051,0.0085 0,0 -0.0023,-0.0028 -0.0023,-0.0028 0,0 -0.0047,-0.0056 -0.0047,-0.0056 -6.58e-4,-0.0019 -0.0023,-0.0028 -0.005,-0.0028 -0.0054,0 -0.01154,0.0023 -0.01849,0.0071 -0.0061,0.0047 -0.01272,0.0071 -0.01994,0.0071 -0.0036,0 -0.0069,-0.0019 -0.01,-0.0057 -0.0088,0.01614 -0.01886,0.02284 -0.03021,0.01996 -0.0039,0.0019 -0.0068,0.0053 -0.0084,0.01009 -0.0017,0.0048 -0.0034,0.0097 -0.0051,0.01454 -7.99e-4,0.0049 -0.0024,0.0093 -0.0049,0.01322 -0.0014,0.003 -0.0044,0.0044 -0.009,0.0044 -0.01197,0 -0.02107,0.002 -0.0273,0.0059 -0.0062,0.004 -0.01177,0.009 -0.01657,0.01495 -0.0046,0.005 -0.0094,0.01056 -0.01423,0.01663 -0.0049,0.0061 -0.01145,0.0112 -0.01974,0.01529 -0.0141,0.04372 -0.02596,0.08989 -0.03546,0.138706 -0.0089,0.04581 -0.01554,0.09546 -0.01976,0.149246 0,0 0.0062,0 0.0062,0 0.0031,0 0.0074,-6.26e-4 0.01276,-0.0019 0.0064,-0.0012 0.01223,-0.0019 0.01739,-0.0019 0.0052,0 0.0091,0.0012 0.01174,0.0037 0.0039,0.0013 0.0053,0.005 0.0042,0.01124 -0.0073,0.0063 -0.01499,0.01132 -0.02297,0.01511 -0.0067,0.0025 -0.01402,0.0025 -0.0219,0 0,0 -0.01251,0 -0.01251,0 -0.005,0.01525 -0.01127,0.0313 -0.01877,0.04816 -0.0073,0.01572 -0.01257,0.0316 -0.01572,0.04764 0,0 -0.0023,0.02846 -0.0023,0.02846 -0.003,0.0096 -0.0079,0.01787 -0.01468,0.02479 0,0 -0.01979,0.01674 -0.01979,0.01674 -0.0066,0.0056 -0.0129,0.01196 -0.01878,0.01903 -0.0056,0.0057 -0.0096,0.01424 -0.01203,0.02572 -0.0043,0.02028 -0.0052,0.03271 -0.0027,0.03712 0.0039,0.0029 0.0079,0.0052 0.01214,0.0066 0.0053,0.0015 0.0091,0.0052 0.01129,0.01112 0.0036,0.0045 0.0032,0.01794 -0.0013,0.04064 0,0 0.0062,0.02068 0.0062,0.02068 -0.0018,0.0093 -0.0063,0.02015 -0.01337,0.03267 -9.33e-4,0.0047 8.89e-4,0.01024 0.0055,0.01656 0.0046,0.0064 0.0055,0.01672 0.0027,0.03119 -0.0031,0.01621 -0.0085,0.03174 -0.01614,0.04659 -0.0077,0.01497 -0.01307,0.03006 -0.01606,0.04527 -0.0034,0.01706 -0.0044,0.03168 -0.0031,0.04381 0.0016,0.01046 0.0014,0.02099 -6.16e-4,0.03157 -0.0021,0.01064 -0.0064,0.02045 -0.01315,0.02941 -0.0064,0.0072 -0.01013,0.01352 -0.0112,0.01896 -0.0011,0.0055 -0.0013,0.01001 -8.1e-4,0.01366 5.41e-4,0.0037 0.0017,0.0073 0.0035,0.011 -0.0029,0.01477 -0.0053,0.03059 -0.0074,0.04748 -0.0017,0.01514 -0.0042,0.03136 -0.0076,0.04868 -0.0065,0.03314 -0.01584,0.06786 -0.02823,0.104208 -0.01263,0.03703 -0.02258,0.07369 -0.02979,0.109942 -0.0034,0.01729 -0.0011,0.02598 0.0072,0.02598 -0.0013,0.0065 -0.0037,0.01202 -0.0073,0.01641 -0.0032,0.0022 -0.0062,0.0033 -0.0089,0.0033 0,0 -0.0026,0.01324 -0.0026,0.01324 -0.0085,0.02898 -0.013,0.05837 -0.0133,0.08817 -3.02e-4,0.03023 -0.003,0.05851 -0.0081,0.08477 -0.0028,0.01446 -0.0064,0.02901 -0.01074,0.04366 -0.0044,0.01475 -0.0065,0.0296 -0.0065,0.04455 0.01523,0.02767 0.02251,0.05955 0.02169,0.09579 6.69e-4,0.03683 -0.0035,0.07967 -0.01251,0.128837 -0.01187,0.06437 -0.02881,0.130551 -0.05106,0.198614 -0.02289,0.07003 -0.04367,0.140519 -0.06223,0.211425 0.0013,0.01969 0.0017,0.03953 0.0013,0.05953 0.0013,0.02016 -0.0023,0.04388 -0.01089,0.07125 0,0 -0.0098,0.05212 -0.0098,0.05212 0.02237,0.01055 0.03649,0.03355 0.04234,0.06934 -0.01166,-0.0036 -0.02056,0.0018 -0.02673,0.01626 -0.0062,0.01454 -0.01221,0.03283 -0.01807,0.05494 -0.0052,0.01856 -0.01047,0.03726 -0.01574,0.05608 -0.0046,0.01515 -0.01273,0.02466 -0.02429,0.02848 0.0037,0.01915 0.0033,0.04038 -0.001,0.06371 -0.0018,0.0196 -0.0046,0.03935 -0.0083,0.05923 -0.01127,0.0605 -0.02791,0.12442 -0.05012,0.191935 -0.01997,0.06476 -0.03648,0.130985 -0.0494,0.198721 -0.0061,0.03214 -0.01033,0.06464 -0.01256,0.09749 -0.0013,0.02844 0.0028,0.05474 0.01258,0.07885 -0.0161,0.0097 -0.02944,0.03162 -0.04007,0.06606 -0.0077,0.02981 -0.01715,0.05739 -0.02822,0.08268 0.01254,0 0.01447,0.02293 0.0057,0.0693 -0.01388,0.0735 -0.0254,0.145991 -0.03448,0.217353 -0.006,0.06727 -0.01766,0.147516 -0.03519,0.241625 -0.02032,0.109063 -0.04539,0.22484 -0.0755,0.347832 -0.02747,0.120543 -0.05409,0.24872 -0.07984,0.385126 -0.01959,0.103766 -0.03513,0.206552 -0.04644,0.308164 -0.0075,0.09618 -0.02198,0.20307 -0.04391,0.321432 -0.02422,0.130718 -0.05709,0.270253 -0.0991,0.419288 -0.03876,0.144567 -0.07293,0.294057 -0.102281,0.448726 0,0 -0.03039,0.160153 -0.03039,0.160153 -0.0083,0.04366 -0.01252,0.08221 -0.01263,0.115497 -4.87e-4,0.135599 0.01342,0.239914 0.04204,0.310751 0.02695,0.08396 0.04576,0.181725 0.05626,0.294091 0,0 0.01529,0.05714 0.01529,0.05714 0.01657,0 0.03292,-0.01912 0.04895,-0.05714 0.01391,-0.0252 0.0281,-0.06275 0.04252,-0.112378 0.01234,-0.03688 0.02458,-0.07351 0.03674,-0.109867 0.01341,-0.02409 0.0265,-0.03609 0.03934,-0.03609 0,0 0.02888,0 0.02888,0 0.0053,0.07243 0.01249,0.133612 0.02157,0.18311 0.0092,0.05 0.02698,0.07519 0.05333,0.07519 0.02635,0 0.05442,-0.02519 0.08398,-0.07519 0.03093,-0.03716 0.0624,-0.08017 0.09434,-0.128873 0.03163,-0.04822 0.06224,-0.09001 0.09191,-0.125552 0.03263,-0.03528 0.06247,-0.04698 0.08975,-0.0353 0,0 0.01904,0 0.01904,0 0.01988,-0.06981 0.03635,-0.138588 0.04948,-0.206373 0.01602,-0.06684 0.02472,-0.138175 0.02625,-0.213776 0,0 0.01593,-0.157933 0.01593,-0.157933 0.0457,-0.07184 0.08035,-0.157559 0.104074,-0.256328 0.02406,-0.106114 0.04413,-0.218984 0.0603,-0.337987 0.01572,-0.115722 0.02967,-0.228301 0.0419,-0.337864 0.01455,-0.106669 0.03098,-0.206609 0.04927,-0.300219 -0.0064,-0.01538 -0.01764,-0.01924 -0.03372,-0.01162 -0.01285,0 -0.01753,-0.01917 -0.01408,-0.05722 0.02307,-0.03017 0.03584,-0.0601 0.03842,-0.0898 0.0051,-0.05871 0.0045,-0.109355 -0.0016,-0.152228 -0.0054,-0.04939 -0.0056,-0.101594 -6.01e-4,-0.156473 0.0031,-0.03389 0.01062,-0.06412 0.02259,-0.09078 0.01245,-0.03305 0.02034,-0.06907 0.02372,-0.107943 0,0 0.0058,-0.06701 0.0058,-0.06701 -0.01399,0 -0.01872,-0.0252 -0.01423,-0.07506 0.0011,-0.01235 1.57e-4,-0.03999 -0.0028,-0.08255 -0.0024,-0.048 -0.0059,-0.09534 -0.01045,-0.142022 -0.0039,-0.05176 -0.0084,-0.0971 -0.01331,-0.136277 -0.0027,-0.03871 -0.0048,-0.06063 -0.0065,-0.06609 0.0027,-0.02715 0.0041,-0.0514 0.0041,-0.07279 5.45e-4,-0.02655 0.0024,-0.0555 0.0056,-0.08679 0.0099,-0.09711 0.02262,-0.171704 0.03822,-0.225287 0.01735,-0.05266 0.03475,-0.118409 0.05205,-0.196363 0,0 -0.01383,-0.04046 -0.01383,-0.04046 0.0022,-0.02224 0.0097,-0.03991 0.02262,-0.05309 0.0033,-0.03487 0.0021,-0.0629 -0.0036,-0.08428 -0.0033,-0.02545 -0.0077,-0.04858 -0.01319,-0.06944 0,0 -0.01631,-0.0617 -0.01631,-0.0617 -0.0031,-0.02431 -0.0022,-0.05041 0.0026,-0.07824 0,0 0.0012,-0.01184 0.0012,-0.01184 0,0 0.0138,0 0.0138,0 0.0078,-0.004 0.01406,-0.01182 0.01889,-0.02354 -2.98e-4,-0.01558 -0.0019,-0.02721 -0.0047,-0.03494 -6.7e-4,-0.01154 -0.0015,-0.02113 -0.0025,-0.02878 0.0012,-0.01143 0.0032,-0.02281 0.0062,-0.03414 0.0047,-0.01128 0.01339,-0.02626 0.02594,-0.04486 -7.17e-4,-0.0111 -0.0034,-0.02031 -0.008,-0.02767 -0.0025,-0.01098 -0.006,-0.02011 -0.01054,-0.02738 -0.0046,-0.0073 -0.0082,-0.01449 -0.011,-0.0217 -0.0024,-0.01078 -0.0022,-0.02153 7.07e-4,-0.03223 0,0 0.04294,-0.0371 0.04294,-0.0371 0.001,-0.01051 0.0031,-0.02271 0.0061,-0.03659 0.0031,-0.01381 0.0051,-0.02582 0.0061,-0.03608 0.0058,-0.06071 0.0031,-0.120007 -0.0077,-0.177945 -0.009,-0.05662 -0.01021,-0.115018 -0.0039,-0.175009 0.0034,-0.03237 0.0073,-0.05419 0.01164,-0.06575 0.0059,-0.0115 0.01135,-0.01866 0.01635,-0.02152 0.0068,-0.0057 0.01196,-0.01 0.01536,-0.01282 0.005,-0.0029 0.008,-0.0099 0.0091,-0.02121 0.0016,-0.01683 0.0018,-0.03493 6.42e-4,-0.05427 3.35e-4,-0.01917 0.0035,-0.03548 0.0094,-0.04899 0,0 0.04843,-0.03209 0.04843,-0.03209 0.0082,-0.008 0.01398,-0.02246 0.01724,-0.0434 0.0032,-0.02075 0.011,-0.03362 0.02328,-0.03875 0.01838,-0.0077 0.03865,-0.01149 0.06084,-0.01149 0.02383,-0.0026 0.04608,-0.0038 0.06678,-0.0038 0.05174,0 0.103526,-0.0013 0.155299,-0.0038 0.05171,-0.0026 0.102638,-0.0038 0.152818,-0.0038 0.01328,0 0.02391,0.01271 0.03195,0.03835 0.0096,0.02332 0.0212,0.0377 0.03488,0.04295 0.0086,-0.0131 0.01555,-0.02742 0.02094,-0.04295 0.0053,-0.01797 0.01216,-0.03073 0.02071,-0.03835 0.007,-0.0076 0.01577,-0.01011 0.0262,-0.0076 0.01179,0 0.01949,-0.0076 0.0231,-0.02262 0.0073,0 0.01532,-0.0013 0.02396,-0.0038 0.0101,-0.0025 0.01953,-0.0038 0.02831,-0.0038 0.01024,0 0.01984,0.0013 0.02881,0.0038 0.009,0.0025 0.01786,0.0038 0.02666,0.0038 0.0145,-0.01991 0.02814,-0.03965 0.04094,-0.0592 0.0139,-0.02179 0.02612,-0.04457 0.03667,-0.06828 0.01329,0.0047 0.02184,0.0047 0.02562,0 0.0049,-0.0071 0.0076,-0.01527 0.008,-0.02462 0.0018,-0.0093 0.0037,-0.01857 0.0055,-0.02779 0.0018,-0.0092 0.0068,-0.0149 0.01494,-0.01719 0.02182,0.0069 0.03697,0.0046 0.04537,-0.0068 0.0095,-0.01361 0.02322,-0.02038 0.04131,-0.02038 -0.0069,-0.02018 -0.0079,-0.03353 -0.0033,-0.04017 0.0046,-0.0066 0.01104,-0.0099 0.01929,-0.0099 0.0079,-0.0022 0.01502,-0.0055 0.02125,-0.0099 0.0076,-0.0044 0.01025,-0.01418 0.008,-0.02935 -0.0019,-0.01291 -0.0069,-0.02361 -0.01489,-0.03213 -0.0069,-0.0106 -0.0142,-0.01904 -0.02182,-0.02534 0,0 0.0098,-0.01568 0.0098,-0.01568 0.01399,0.0042 0.02353,0.0052 0.02857,0.0031 0.0061,-0.0042 0.0099,-0.0094 0.01165,-0.01558 0.0017,-0.0062 0.0026,-0.01341 0.0026,-0.02161 -2.62e-4,-0.01021 0.0016,-0.01936 0.0056,-0.02745 0.002,-0.01208 0.0075,-0.01909 0.01632,-0.02109 0.0085,-0.004 0.01389,-0.01096 0.01614,-0.02087 0.0089,-0.03138 0.01389,-0.06226 0.01494,-0.09266 0.001,-0.02993 0.0077,-0.05939 0.01985,-0.0884 0.0017,-0.01077 0.0014,-0.02236 -9.16e-4,-0.03476 -0.0011,-0.01232 -0.0026,-0.02369 -0.0045,-0.03413 -0.0036,-0.01897 -0.0087,-0.03691 -0.01552,-0.05382 -0.007,-0.01843 -0.01219,-0.03666 -0.01553,-0.05472 -0.0039,-0.02111 -0.0044,-0.03957 -0.0015,-0.05547 0.0026,-0.01733 0.0018,-0.03681 -0.0023,-0.05838 0,0 -6e-5,4.3e-5 -6e-5,4.3e-5 z M 37.694896,87.15919 c -0.0025,0.0055 -0.0053,0.0094 -0.0084,0.01158 -0.0031,0.0022 -0.004,0.0061 -0.0026,0.01167 0,0 -0.02203,0 -0.02203,0 0,0 0.0035,-0.03311 0.0035,-0.03311 0,0 0.0029,0 0.0029,0 0.0068,0 0.01146,0.0016 0.01405,0.0049 0.0036,0.0033 0.0078,0.0049 0.01263,0.0049 0,0 0,10e-7 0,10e-7 z m 0.622605,0.457254 c -0.0015,0.0074 -0.0037,0.01327 -0.0067,0.01771 -0.0029,0.0045 -0.0041,0.01042 -0.0033,0.01789 7.39e-4,0.0075 0.0021,0.01581 0.0042,0.02491 0.0019,0.0076 0.0021,0.01528 5.33e-4,0.02297 -0.0032,0.0031 -0.0077,0.01005 -0.01357,0.02093 -0.0049,0.0094 -0.0098,0.01961 -0.01464,0.03068 -0.0049,0.01115 -0.0098,0.02156 -0.0149,0.03123 -0.004,0.0081 -0.0073,0.01216 -0.0096,0.01216 0,0 0.0058,0.07219 0.0058,0.07219 -0.0083,0.01701 -0.01934,0.03159 -0.03308,0.04369 -0.01272,0.01044 -0.02614,0.02093 -0.04024,0.03148 -0.01305,0.0088 -0.02606,0.0195 -0.03907,0.03202 -0.01317,0.0108 -0.02436,0.0262 -0.03358,0.04632 0,0 -0.0924,0 -0.0924,0 -0.01142,-0.0092 -0.0208,-0.0064 -0.02822,0.0083 -0.0075,0.01483 -0.0163,0.0251 -0.02644,0.03072 -0.01399,0.0056 -0.028,0.0094 -0.04203,0.01129 0,0 -0.04012,0 -0.04012,0 -0.02166,0 -0.04576,-0.0028 -0.07227,-0.0085 -0.02507,-0.0075 -0.0398,-0.02984 -0.04419,-0.06649 -0.02082,0.01458 -0.03849,0.01641 -0.05282,0.0055 -0.01425,-0.01089 -0.03055,-0.01812 -0.04893,-0.02172 -0.0058,-0.0054 -0.0088,-0.01345 -0.0092,-0.02414 -3.63e-4,-0.01063 -7.16e-4,-0.0212 -0.0011,-0.0317 0.001,-0.01218 5.94e-4,-0.0217 -0.0013,-0.02859 -0.0017,-0.0086 -0.0068,-0.01285 -0.01527,-0.01285 -0.0097,0 -0.01591,0.0017 -0.01865,0.0051 0,0 0.0014,-0.01535 0.0014,-0.01535 4.49e-4,-0.03031 -1.7e-5,-0.05683 -0.0014,-0.07971 -0.0012,-0.0242 -8.43e-4,-0.0457 0.001,-0.0646 9.18e-4,-0.0094 0.0024,-0.01869 0.0045,-0.02797 0.0022,-0.01075 0.0049,-0.02068 0.008,-0.0298 0.0012,-0.01208 0.001,-0.02258 -3.71e-4,-0.03152 -0.0012,-0.01038 -1e-4,-0.02216 0.0034,-0.03533 -0.002,-0.0029 -0.0039,-0.0058 -0.0059,-0.0087 -0.0018,-0.0043 -0.0026,-0.008 -0.0023,-0.01084 7.17e-4,-0.0072 0.003,-0.01362 0.0069,-0.01933 0.004,-0.0071 0.0066,-0.01629 0.0076,-0.02753 0,0 0.0024,-0.02501 0.0024,-0.02501 0,0 -0.01161,-0.01441 -0.01161,-0.01441 0.0037,-0.01497 0.009,-0.02509 0.01596,-0.03047 0.007,-0.0054 0.01098,-0.01402 0.0121,-0.02595 0.0012,-0.01315 0.0013,-0.02489 1.49e-4,-0.03525 -0.0011,-0.0103 -0.0022,-0.02116 -0.0032,-0.03259 -0.0031,0 -0.0067,-6.37e-4 -0.01076,-0.0019 -0.0029,-0.0025 -0.0041,-0.0057 -0.0037,-0.0094 0.0023,-0.0025 0.0047,-0.0056 0.0072,-0.0094 0.0049,-0.0075 0.0074,-0.01244 0.0077,-0.01491 6.04e-4,-0.0062 -0.0014,-0.0117 -0.0061,-0.0166 -0.0046,-0.0049 -0.01033,-0.0091 -0.0171,-0.01279 -0.0057,-0.0036 -0.0121,-0.0061 -0.01909,-0.0073 -0.0069,-0.0024 -0.01231,-0.0036 -0.01638,-0.0036 -0.01221,0 -0.02335,0.0036 -0.03345,0.01088 -0.0035,-0.0048 -0.0049,-0.0097 -0.0042,-0.01449 1.58e-4,-0.0012 0.0035,-0.0036 0.01007,-0.0072 0.0067,-0.0048 0.01378,-0.0089 0.02129,-0.01251 0.0086,-0.0047 0.01668,-0.0089 0.02413,-0.01241 0.0084,-0.0035 0.01415,-0.0053 0.01717,-0.0053 0.01251,-0.01401 0.02578,-0.02674 0.03983,-0.03821 0.01492,-0.01139 0.02566,-0.02663 0.03222,-0.0456 0,0 0.0193,-0.0033 0.0193,-0.0033 0.0059,0 0.01312,5.57e-4 0.02182,0.0017 0.0097,0.0011 0.0194,0.0017 0.02916,0.0017 0.0098,0 0.01858,-5.58e-4 0.02645,-0.0017 0.0079,-0.0022 0.01396,-0.0061 0.01812,-0.01158 0.0073,0.0099 0.01626,0.01769 0.0268,0.02326 0.01062,0.0045 0.02125,0.0095 0.0319,0.01515 0.05321,-0.0045 0.103823,-0.0068 0.151956,-0.0068 0.04813,0 0.09855,0.0056 0.151549,0.01694 7.59e-4,0.01026 0.002,0.02058 0.0038,0.03098 0.0027,0.0093 0.0097,0.01515 0.02088,0.01749 0,0 2.86e-4,0.0035 2.86e-4,0.0035 0.0015,0.0059 8.18e-4,0.01002 -0.002,0.01239 -0.0028,0.0024 -0.0062,0.0042 -0.01019,0.0053 -0.004,0.0012 -0.0079,0.003 -0.01174,0.0054 -0.003,0.0012 -0.0042,0.0048 -0.0038,0.01078 0.0013,0.01813 0.0053,0.03833 0.01208,0.06067 0.0079,0.02266 0.02115,0.03795 0.03964,0.04565 -4.03e-4,0.0077 0.0011,0.01877 0.0044,0.03315 0.0033,0.01319 0.0077,0.02783 0.01345,0.04395 0.0056,0.01492 0.01135,0.02997 0.0171,0.04517 0.0058,0.01533 0.01023,0.02728 0.01324,0.03577 0,0 0.02626,0.03005 0.02626,0.03005 2.96e-4,0.0029 -4.5e-4,0.0065 -0.0022,0.01086 -8.31e-4,0.0029 -0.0029,0.0044 -0.0063,0.0044 0,0 -0.0034,0 -0.0034,0 8.62e-4,0.0088 0.0058,0.01316 0.01477,0.01316 0,0 -3.4e-5,-1.1e-5 -3.4e-5,-1.1e-5 z m -0.932125,-0.147446 c -7.27e-4,0.004 -0.0018,0.0067 -0.0031,0.0081 -0.0013,0.0014 -0.0021,0.0027 -0.0024,0.0041 0,0 -0.02426,0 -0.02426,0 7.65e-4,-0.0041 1.98e-4,-0.0068 -0.0017,-0.0081 -0.0016,-0.0027 -0.0035,-0.004 -0.0057,-0.004 0,0 -0.0024,-0.004 -0.0024,-0.004 7.74e-4,-0.004 0.0034,-0.0067 0.008,-0.008 0.0048,-0.0027 0.0082,-0.004 0.01038,-0.004 0.0053,0 0.01045,0.0013 0.01531,0.004 0.0051,0.0013 0.0071,0.0054 0.0059,0.01205 0,0 1.9e-5,0 1.9e-5,0 z"
                 style="font-style:normal;font-variant:normal;font-weight:normal;font-stretch:normal;font-family:'Military Document AOE';-inkscape-font-specification:'Military Document AOE';fill:#d4aa00;stroke-width:0.26458332"
                 id="path23"
                 inkscape:original-d="M 39.944405,89.428314 V 89.26295 q -0.02067,-0.02067 -0.03617,-0.08268 -0.01033,-0.06201 -0.02067,-0.134358 -0.01034,-0.07235 -0.02067,-0.139527 -0.01033,-0.07235 -0.02584,-0.10852 0.06718,-0.0155 0.08268,-0.06201 0.02067,-0.04651 0.0155,-0.09819 0,-0.05684 -0.01033,-0.113688 -0.0052,-0.05684 0.0155,-0.09819 -0.02067,0 -0.06201,-0.03617 -0.03617,-0.04134 -0.07751,-0.08785 -0.04134,-0.05168 -0.07235,-0.08785 -0.03101,-0.04134 -0.04134,-0.04134 0,-0.05168 0.03617,-0.06201 0.03617,-0.01033 0.03617,-0.05684 v -0.03101 q -0.04651,-0.0052 -0.06201,-0.03617 -0.0155,-0.03101 -0.02067,-0.06201 -0.0052,-0.03617 -0.0155,-0.06201 -0.0052,-0.03101 -0.03617,-0.03101 -0.0155,0 -0.07235,-0.04651 -0.05168,-0.04651 -0.113689,-0.103353 -0.06201,-0.05684 -0.118855,-0.113688 -0.05684,-0.06201 -0.07752,-0.08268 h -0.01033 q -0.04134,0 -0.06201,0.02067 -0.02067,0.02067 -0.06201,0.02067 -0.03617,0 -0.04651,-0.01034 -0.01033,-0.04134 -0.04134,-0.06718 -0.03101,-0.02584 -0.03101,-0.07235 v -0.04134 q -0.07751,0.0155 -0.118855,-0.01033 -0.03617,-0.02584 -0.06201,-0.09819 0.04134,0 0.06718,-0.02067 0.03101,-0.02067 0.04134,-0.05168 -0.04134,-0.02584 -0.129191,-0.031 -0.08785,-0.01034 -0.139526,-0.01034 -0.02067,0 -0.03101,0.0155 -0.01033,0.0155 -0.0155,0.03617 -0.0052,0.02067 -0.0155,0.04134 -0.0052,0.0155 -0.03101,0.02067 -0.02584,-0.04134 -0.08268,-0.04134 -0.05168,0 -0.09302,0.02067 -0.03617,0.02067 -0.07752,0.02067 l -0.04134,-0.04134 q -0.04651,0.0052 -0.08268,-0.0052 -0.03617,-0.01034 -0.07235,-0.02584 -0.03101,-0.0155 -0.06201,-0.02584 -0.03101,-0.0155 -0.07235,-0.0155 -0.103353,0 -0.201538,0.02584 -0.09302,0.02067 -0.196371,0.04651 -0.02584,-0.03101 -0.06201,-0.04134 -0.03617,-0.01033 -0.06718,-0.01033 -0.03617,0 -0.118856,0.0052 -0.08268,0.0052 -0.175699,0.02067 -0.09302,0.01033 -0.170533,0.02584 -0.07751,0.0155 -0.09819,0.04134 l -0.04134,-0.04134 q -0.03617,0.01034 -0.07235,0.07751 h -0.01034 q -0.02584,0 -0.03617,-0.02067 -0.01034,-0.02584 -0.03617,-0.02584 -0.0155,0 -0.02584,0.01034 0,0.01034 -0.0052,0.04651 0,0.03101 -0.0155,0.03101 l -0.01033,-0.01033 q -0.01034,-0.01034 -0.02067,-0.02067 -0.0052,-0.01034 -0.02067,-0.01034 -0.03101,0 -0.06718,0.02584 -0.03101,0.02584 -0.07235,0.02584 -0.02067,0 -0.04134,-0.02067 -0.03617,0.08785 -0.103353,0.07235 -0.02067,0.01033 -0.02584,0.03617 -0.0052,0.02584 -0.01033,0.05168 0,0.02584 -0.01034,0.04651 -0.0052,0.0155 -0.03101,0.0155 -0.06718,0 -0.09819,0.02067 -0.03101,0.02067 -0.05168,0.05168 -0.02067,0.02584 -0.04134,0.05684 -0.02067,0.03101 -0.06201,0.05168 -0.03101,0.217041 -0.03101,0.444417 0,0.206706 0.03101,0.434082 h 0.02067 q 0.0155,0 0.04134,-0.0052 0.03101,-0.0052 0.05684,-0.0052 0.02584,0 0.04134,0.01033 0.02067,0.0052 0.02067,0.03101 -0.03101,0.02584 -0.06718,0.04134 -0.03101,0.01034 -0.07235,0 h -0.04134 q -0.01034,0.06201 -0.03101,0.129191 -0.02067,0.06201 -0.02067,0.124024 l 0.01034,0.07235 q -0.0052,0.03617 -0.03101,0.06201 -0.02584,0.02067 -0.05168,0.04134 -0.02584,0.02067 -0.04651,0.04651 -0.02067,0.02067 -0.02067,0.06201 0,0.07235 0.0155,0.08785 0.02067,0.01033 0.04134,0.0155 0.02584,0.0052 0.04134,0.02584 0.02067,0.0155 0.02067,0.09302 l 0.03101,0.04651 q 0,0.031 -0.02067,0.07235 0,0.0155 0.02584,0.03617 0.02584,0.02067 0.02584,0.06718 0,0.05168 -0.02067,0.09819 -0.02067,0.04651 -0.02067,0.09302 0,0.05168 0.0155,0.08785 0.0155,0.03101 0.0155,0.06201 0,0.03101 -0.02067,0.05684 -0.02067,0.02067 -0.02067,0.03617 0,0.0155 0.0052,0.02584 0.0052,0.01034 0.0155,0.02067 0,0.04134 0.0052,0.08785 0.0052,0.04134 0.0052,0.08785 0,0.08785 -0.02067,0.180868 -0.02067,0.09302 -0.02067,0.180867 0,0.04134 0.03101,0.04134 0,0.0155 -0.01034,0.02584 -0.01033,0.0052 -0.02067,0.0052 v 0.02067 q -0.01034,0.06718 0.01033,0.134358 0.02067,0.06718 0.02067,0.124024 0,0.03101 -0.0052,0.06201 -0.0052,0.031 0.0052,0.06201 0.07235,0.05684 0.09302,0.129191 0.02584,0.07235 0.02584,0.165365 0,0.118856 -0.03101,0.237712 -0.03101,0.118855 -0.04651,0.232543 0.0155,0.03101 0.02584,0.06201 0.0155,0.03101 0.0052,0.07235 v 0.05168 q 0.07235,0.0155 0.10852,0.06718 -0.03617,-0.0052 -0.04651,0.0155 -0.01033,0.02067 -0.0155,0.05168 -0.0052,0.02584 -0.01034,0.05168 -0.0052,0.02067 -0.03617,0.02584 0.02067,0.02584 0.02067,0.05684 0.0052,0.02584 0.0052,0.05168 0,0.07751 -0.02584,0.160197 -0.02067,0.07752 -0.02067,0.15503 0,0.03617 0.01033,0.07235 0.01034,0.03101 0.04651,0.05684 -0.03617,0.01033 -0.04651,0.04651 -0.0052,0.031 -0.02067,0.05684 0.03101,0 0.03101,0.04651 0,0.07235 0.01033,0.139527 0.0155,0.06201 0.0155,0.144694 0,0.09302 -0.0155,0.191203 -0.01033,0.09302 -0.01033,0.191202 0,0.07235 0.0155,0.139527 0.02067,0.06201 0.02067,0.134358 0,0.07751 -0.02584,0.160197 -0.02067,0.07752 -0.02067,0.15503 0,0.02584 0,0.05168 0,0.02067 0.01034,0.03617 0.04134,0.06201 0.10852,0.09302 0.06718,0.03617 0.113688,0.08268 l 0.02584,0.0155 q 0.02584,0 0.04134,-0.0155 0.0155,-0.01034 0.02584,-0.03101 0.01034,-0.0155 0.02067,-0.03101 0.0155,-0.01034 0.03617,-0.01034 h 0.03101 q 0.02584,0.03101 0.05168,0.05168 0.02584,0.02067 0.06718,0.02067 0.04134,0 0.07751,-0.02067 0.04134,-0.0155 0.08268,-0.03617 0.04134,-0.02067 0.08268,-0.03617 0.04651,-0.0155 0.09302,-0.01034 h 0.02067 q 0.02067,-0.03101 0.03101,-0.06201 0.0155,-0.03101 0.0052,-0.06718 v -0.05168 q 0.06718,-0.03617 0.09302,-0.08785 0.02584,-0.05684 0.03617,-0.124023 0.01033,-0.06718 0.0155,-0.134359 0.01033,-0.06718 0.03101,-0.129191 -0.0155,-0.01033 -0.04651,-0.0052 -0.02584,0 -0.02584,-0.02584 0.04134,-0.02067 0.04134,-0.04134 0,-0.04134 -0.02067,-0.07235 -0.02067,-0.03617 -0.02067,-0.07751 0,-0.02584 0.02067,-0.04651 0.02067,-0.02584 0.02067,-0.05685 v -0.03617 q -0.03101,0 -0.03101,-0.04134 0,-0.01033 -0.0155,-0.04651 -0.0155,-0.04134 -0.03617,-0.08268 -0.02067,-0.04651 -0.04134,-0.08268 -0.0155,-0.03617 -0.02067,-0.04134 0,-0.02584 -0.0052,-0.04651 -0.0052,-0.02584 -0.0052,-0.05684 0,-0.09819 0.02584,-0.155029 0.03101,-0.05684 0.05684,-0.144694 l -0.03101,-0.03101 q 0,-0.02584 0.03101,-0.04134 0,-0.04134 -0.02067,-0.06718 -0.0155,-0.03101 -0.03617,-0.05684 -0.02067,-0.02584 -0.04134,-0.05168 -0.0155,-0.03101 -0.01033,-0.06718 v -0.01033 q 0.01033,0 0.02584,0 0.02067,-0.0052 0.03101,-0.02067 -0.0052,-0.02067 -0.0155,-0.03101 -0.0052,-0.0155 -0.01034,-0.02584 0,-0.0155 0.0052,-0.03101 0.01033,-0.0155 0.04134,-0.04134 -0.0052,-0.0155 -0.02067,-0.02584 -0.01033,-0.0155 -0.02584,-0.02584 -0.0155,-0.01034 -0.02584,-0.02067 -0.01034,-0.0155 -0.0052,-0.03101 l 0.07751,-0.03617 q 0,-0.0155 0.0052,-0.03617 0.0052,-0.02067 0.0052,-0.03617 0,-0.09302 -0.05168,-0.186036 -0.04651,-0.09302 -0.04651,-0.19637 0,-0.05684 0.01033,-0.07751 0.0155,-0.02067 0.03101,-0.02584 0.02067,-0.01033 0.03101,-0.0155 0.0155,-0.0052 0.0155,-0.02584 0,-0.03101 -0.01034,-0.06718 -0.0052,-0.03617 0.01034,-0.06201 l 0.103353,-0.04134 q 0.02584,-0.0155 0.03101,-0.05684 0.0052,-0.04134 0.04651,-0.05168 0.06201,-0.0155 0.139527,-0.0155 0.08268,-0.0052 0.155029,-0.0052 0.180867,0 0.361735,-0.0052 0.180867,-0.0052 0.356567,-0.0052 0.04651,0 0.07235,0.05168 0.03101,0.04651 0.07751,0.05684 0.03101,-0.02584 0.05168,-0.05684 0.02067,-0.03617 0.05168,-0.05168 0.02584,-0.0155 0.06201,-0.01033 0.04134,0 0.05684,-0.03101 0.02584,0 0.05684,-0.0052 0.03617,-0.0052 0.06718,-0.0052 0.03617,0 0.06718,0.0052 0.03101,0.0052 0.06201,0.0052 0.05684,-0.04134 0.108521,-0.08268 0.05684,-0.04651 0.103352,-0.09819 0.04651,0.01033 0.06201,0 0.02067,-0.0155 0.02584,-0.03617 0.01034,-0.02067 0.02067,-0.04134 0.01033,-0.02067 0.04134,-0.02584 0.07751,0.0155 0.113688,-0.01033 0.04134,-0.03101 0.108521,-0.03101 -0.0155,-0.04651 0.0052,-0.06201 0.02067,-0.0155 0.05168,-0.0155 0.03101,-0.0052 0.05684,-0.0155 0.03101,-0.01033 0.03101,-0.04651 0,-0.03101 -0.02584,-0.05168 -0.02067,-0.02584 -0.04651,-0.04134 l 0.03101,-0.02584 q 0.05168,0.01034 0.07235,0.0052 0.02584,-0.01033 0.03617,-0.02584 0.01033,-0.0155 0.0155,-0.03617 0.0052,-0.02584 0.02584,-0.04651 0.0155,-0.03101 0.05168,-0.03617 0.03617,-0.01034 0.05168,-0.03617 0.05684,-0.08268 0.08268,-0.165365 0.02584,-0.08268 0.09819,-0.165364 0.0155,-0.03101 0.0155,-0.06718 0.0052,-0.03617 0.0052,-0.06718 0,-0.05684 -0.0155,-0.108521 -0.0155,-0.05684 -0.0155,-0.113688 0,-0.06718 0.02584,-0.118856 0.02584,-0.05684 0.02584,-0.129191 z m -2.950724,-1.405599 q -0.01034,0.02584 -0.02584,0.03617 -0.0155,0.01034 -0.0052,0.03617 H 36.88516 V 87.99171 h 0.01033 q 0.03617,0 0.05168,0.0155 0.02067,0.0155 0.04651,0.0155 z M 39.0349,89.26295 q -0.01034,0.02584 -0.02584,0.04134 -0.0155,0.0155 -0.0155,0.04134 0,0.02584 0.0052,0.05684 0.0052,0.02584 -0.0052,0.05168 -0.0155,0.01033 -0.04651,0.04651 -0.02584,0.03101 -0.05168,0.06718 -0.02584,0.03617 -0.05168,0.06718 -0.02067,0.02584 -0.03101,0.02584 v 0.149862 q -0.04134,0.05168 -0.103353,0.08785 -0.05684,0.03101 -0.118856,0.06201 -0.05684,0.02584 -0.113688,0.06201 -0.05684,0.03101 -0.09819,0.08785 h -0.253215 q -0.04651,-0.02584 -0.07751,0.0155 -0.03101,0.04134 -0.07235,0.05684 -0.05684,0.0155 -0.113688,0.02067 -0.05168,0 -0.108521,0 -0.08785,0 -0.19637,-0.0155 -0.103353,-0.02067 -0.129191,-0.124024 -0.08268,0.04134 -0.144694,0.01034 -0.06201,-0.03101 -0.139527,-0.04134 -0.02584,-0.0155 -0.03101,-0.04651 -0.0052,-0.03101 -0.01033,-0.06201 0,-0.03617 -0.01033,-0.05684 -0.01034,-0.02584 -0.04651,-0.02584 -0.04134,0 -0.05168,0.01034 v -0.03101 q -0.01034,-0.09302 -0.02584,-0.165364 -0.0155,-0.07752 -0.0155,-0.139527 0,-0.03101 0.0052,-0.06201 0.0052,-0.03617 0.0155,-0.06718 0,-0.04134 -0.01034,-0.07235 -0.01034,-0.03617 0,-0.08268 -0.01034,-0.01033 -0.02067,-0.02067 -0.01033,-0.0155 -0.01033,-0.02584 0,-0.02584 0.0155,-0.04651 0.0155,-0.02584 0.0155,-0.06718 v -0.06201 l -0.04134,-0.03617 q 0.01033,-0.05684 0.04134,-0.07752 0.03101,-0.02067 0.03101,-0.06718 0,-0.05168 -0.01034,-0.09302 -0.01033,-0.04134 -0.02067,-0.08785 -0.0155,0 -0.03617,-0.0052 -0.0155,-0.01034 -0.0155,-0.02584 0.01034,-0.01034 0.02067,-0.02584 0.02067,-0.03101 0.02067,-0.04134 0,-0.02584 -0.02584,-0.04651 -0.02584,-0.02067 -0.06201,-0.03617 -0.03101,-0.0155 -0.06718,-0.02067 -0.03617,-0.01033 -0.05684,-0.01033 -0.06201,0 -0.10852,0.03101 -0.02067,-0.02067 -0.02067,-0.04134 0,-0.0052 0.03101,-0.02067 0.03101,-0.02067 0.06718,-0.03617 0.04134,-0.02067 0.07751,-0.03617 0.04134,-0.0155 0.05684,-0.0155 0.05684,-0.06201 0.124023,-0.113688 0.07235,-0.05168 0.09819,-0.139526 l 0.06718,-0.01034 q 0.03101,0 0.07751,0.0052 0.05168,0.0052 0.103352,0.0052 0.05168,0 0.09302,-0.0052 0.04134,-0.01033 0.06201,-0.03617 0.04134,0.04651 0.09819,0.07235 0.05684,0.02067 0.113688,0.04651 0.279053,-0.02067 0.532267,-0.02067 0.253215,0 0.5271,0.05168 0,0.04651 0.0052,0.09302 0.01034,0.04134 0.06718,0.05168 v 0.01033 q 0.0052,0.02584 -0.01033,0.03617 -0.0155,0.01033 -0.03617,0.0155 -0.02067,0.0052 -0.04134,0.0155 -0.0155,0.0052 -0.0155,0.03101 0,0.07751 0.02584,0.170532 0.03101,0.09302 0.118856,0.124023 -0.0052,0.03101 0.0052,0.08785 0.01033,0.05168 0.03101,0.113688 0.02067,0.05684 0.04134,0.113688 0.02067,0.05684 0.03101,0.08785 l 0.07235,0.07235 q 0,0.01034 -0.01034,0.02584 -0.0052,0.01033 -0.02067,0.01033 h -0.01034 q 0,0.03101 0.04134,0.03101 z m -2.940389,-0.361735 q 0,0.0155 -0.0052,0.02067 -0.0052,0.0052 -0.0052,0.01034 h -0.07751 q 0,-0.0155 -0.01034,-0.02067 -0.01033,-0.01034 -0.02067,-0.01034 l -0.01034,-0.01034 q 0,-0.0155 0.02067,-0.02067 0.02067,-0.01033 0.03101,-0.01033 0.02584,0 0.05168,0.01033 0.02584,0.0052 0.02584,0.03101 z"
                 inkscape:connector-curvature="0" />
              <path
                 d="m 42.084026,90.648729 c -0.04338,-0.06775 -0.10177,-0.149188 -0.174181,-0.243229 -0.07328,-0.09599 -0.146298,-0.189052 -0.219071,-0.279307 -0.07332,-0.09189 -0.142369,-0.174684 -0.20755,-0.249044 -0.06412,-0.07643 -0.117271,-0.137262 -0.160198,-0.18345 -0.01372,-0.0076 -0.02534,-0.01333 -0.03487,-0.01712 -0.0095,-0.0038 -0.01881,-0.0057 -0.02783,-0.0057 -0.02525,0 -0.04464,0.0038 -0.05819,0.01139 -0.01178,0.0076 -0.03524,4e-6 -0.07015,-0.02271 0.01892,0.07645 0.02302,0.141163 0.01176,0.193228 -0.01189,0.04893 -0.01021,0.113404 0.0055,0.194466 -0.02021,0.03044 -0.02532,0.07893 -0.01497,0.146367 0.0081,0.06434 0.02218,0.137218 0.04241,0.219193 0.02286,0.08421 0.04767,0.173322 0.07455,0.267663 0.02709,0.09171 0.04633,0.177619 0.05734,0.25718 -0.02531,-0.02863 -0.04451,-0.04286 -0.05776,-0.04286 -0.01105,0 -0.01489,0.0057 -0.01154,0.01707 5.79e-4,0.0057 -0.0094,-0.0057 -0.02987,-0.03407 0,0 -0.04627,0 -0.04627,0 0,0 -0.0322,-0.0671 -0.0322,-0.0671 -0.01091,0 -0.02423,-0.0028 -0.03995,-0.0083 -0.01569,-0.0056 -0.03006,-0.0083 -0.04311,-0.0083 -0.06745,0 -0.116104,0.02488 -0.146316,0.07521 -0.03094,0.04538 -0.06213,0.06831 -0.09325,0.06831 -0.02001,0 -0.0425,-0.0086 -0.06737,-0.02577 -0.02708,-0.02275 -0.05157,-0.03407 -0.07361,-0.03407 -0.0066,0 -0.01204,0.0057 -0.0163,0.017 -0.0043,0.0057 -0.0042,0.01997 5.5e-4,0.04286 -0.06691,-0.07394 -0.132325,-0.151764 -0.196132,-0.233149 -0.06224,-0.07939 -0.123164,-0.151748 -0.182964,-0.217497 -0.01511,-0.02989 -0.03329,-0.05703 -0.05452,-0.0815 -0.02107,-0.02428 -0.03674,-0.05077 -0.04706,-0.0794 -0.03374,-0.09356 -0.06832,-0.1731 -0.103897,-0.239621 -0.03286,-0.06504 -0.06682,-0.139124 -0.101645,-0.221509 -0.01416,-0.02426 -0.03047,-0.03631 -0.04903,-0.03631 -0.0093,0 -0.01718,0.004 -0.02372,0.01204 -0.0047,0.0081 -0.01264,0.01209 -0.02382,0.01209 -0.0037,0 -0.0083,-0.0081 -0.01371,-0.02415 0,0 -0.03495,-0.07122 -0.03495,-0.07122 -0.01039,-0.03108 -0.01549,-0.0599 -0.0154,-0.08653 9.5e-5,-0.02637 0.0054,-0.04505 0.01588,-0.0562 -0.01827,-0.02216 -0.03356,-0.05141 -0.04586,-0.08753 -0.0097,-0.02855 -0.01351,-0.05504 -0.01149,-0.07953 8.16e-4,-0.0277 -0.007,-0.06532 -0.02335,-0.112408 -0.0023,-0.0067 -0.006,-0.01495 -0.01116,-0.02488 -0.0034,-0.0099 -0.0076,-0.01481 -0.01268,-0.01481 -0.01175,0 -0.026,-0.01472 -0.04259,-0.04392 -0.01747,-0.03204 -0.03496,-0.06682 -0.05242,-0.104212 -0.01661,-0.03988 -0.03164,-0.07762 -0.04516,-0.113299 -0.0143,-0.03807 -0.02472,-0.06695 -0.03139,-0.08695 -0.01037,-0.0311 -0.02075,-0.06456 -0.03112,-0.10028 -0.0087,-0.03517 -0.0098,-0.0632 -0.0034,-0.08432 0,0 -0.0093,-0.02742 -0.0093,-0.02742 0,0 -0.0131,-0.03861 -0.0131,-0.03861 -0.0037,-0.01526 -0.0061,-0.02664 -0.0072,-0.03419 -4.82e-4,-0.01003 0.0026,-0.01378 0.0094,-0.01128 -0.02567,-0.04945 -0.05181,-0.0966 -0.0784,-0.141587 -0.02605,-0.04406 -0.04714,-0.09059 -0.06336,-0.139399 -0.01228,-0.03695 -0.02062,-0.07218 -0.02512,-0.105778 -0.0051,-0.03509 -0.01344,-0.06958 -0.02487,-0.103482 -0.01451,-0.04302 -0.0319,-0.07943 -0.05216,-0.109557 -0.02056,-0.0315 -0.03638,-0.0643 -0.04759,-0.09831 -0.0047,-0.01414 -0.0066,-0.02554 -0.0058,-0.03427 7.86e-4,-0.0087 -8.3e-4,-0.01905 -0.0048,-0.03108 -0.0011,-0.0068 -0.0025,-0.0111 -0.0043,-0.0128 -0.0023,-0.0034 -0.0044,-0.0059 -0.0062,-0.0076 -0.0023,-0.0034 -0.0038,-0.0059 -0.0043,-0.0076 -5.61e-4,-0.0017 4.07e-4,-0.0042 0.0029,-0.0076 -0.005,-0.01505 -0.01202,-0.0308 -0.02103,-0.04723 -0.0089,-0.01628 -0.01389,-0.02598 -0.01495,-0.0292 -0.0011,-0.0032 -9.1e-5,-0.0056 0.0029,-0.0072 0.003,-0.0016 0.0039,-0.004 0.0029,-0.0072 -0.0074,-0.0222 -0.01762,-0.04257 -0.03069,-0.06117 -0.0035,-0.01075 -0.0048,-0.01992 -0.0039,-0.02752 9.13e-4,-0.0076 0.0048,-0.01134 0.01161,-0.01134 -0.0038,-0.0045 -0.0071,-0.0075 -0.0098,-0.009 -0.0028,-0.0015 -0.0049,-0.0045 -0.0064,-0.009 -0.003,-0.0089 -0.0058,-0.01928 -0.0086,-0.03103 -0.0016,-0.01167 -0.0049,-0.01965 -0.0097,-0.02399 0.01123,-0.01294 0.01596,-0.03004 0.01425,-0.05118 -0.0022,-0.02225 0.0012,-0.04079 0.01007,-0.05574 0,0 -0.04316,-0.123049 -0.04316,-0.123049 0.0025,-0.0075 0.0036,-0.0162 0.0032,-0.02609 6.18e-4,-0.0098 0.0039,-0.01776 0.0099,-0.02384 0,0 -0.0065,-0.01809 -0.0065,-0.01809 -0.0034,-0.0096 -0.0079,-0.01907 -0.0133,-0.02851 -0.0048,-0.01055 -0.0074,-0.02046 -0.0077,-0.02972 0.003,0 0.0073,-5.81e-4 0.01281,-0.0017 0.0061,-0.0023 0.0081,-0.0063 0.006,-0.01205 -0.0013,-0.0034 -0.004,-0.0068 -0.0082,-0.01026 -0.0032,-0.0034 -0.0069,-0.0068 -0.01112,-0.01019 -0.0037,-0.01012 -0.0038,-0.01849 -3.87e-4,-0.02516 0,0 0.0029,0 0.0029,0 0.0078,0 0.01498,0.0022 0.02154,0.0067 0.0076,0.0045 0.01428,0.0067 0.02016,0.0067 0.0088,0 0.01336,-0.0022 0.01359,-0.0067 7.81e-4,-0.0056 9.7e-5,-0.0111 -0.002,-0.01661 -0.0016,-0.0066 -0.0027,-0.01207 -0.0035,-0.01643 -0.0011,-0.0054 9.67e-4,-0.0087 0.0063,-0.0098 0,0 0.07087,0 0.07087,0 0,0 -0.0074,-0.01774 -0.0074,-0.01774 -0.0036,-0.0085 -0.0029,-0.01383 0.0019,-0.01594 0.0074,0.0085 0.01588,0.01274 0.02545,0.01274 0.0077,0 0.01344,-0.0021 0.01734,-0.0064 0.0048,-0.0042 0.01106,-0.0064 0.01869,-0.0064 0.01334,0 0.02716,0.0021 0.04149,0.0064 0.01533,0.0043 0.02971,0.0064 0.04311,0.0064 0,0 0.02441,0 0.02441,0 6.89e-4,0.0075 0.0025,0.01339 0.0056,0.0177 0.0035,0.0032 0.0072,0.0059 0.01111,0.0081 0.0039,0.0022 0.0079,0.0043 0.01184,0.0065 0.004,0.0022 0.0073,0.006 0.0099,0.01149 0.0082,-0.0011 0.01603,-7e-6 0.02348,0.0033 0.0075,0.0033 0.01452,0.0077 0.02117,0.01328 0.0071,0.0045 0.01429,0.01004 0.02157,0.01677 0.0068,0.0056 0.01374,0.01072 0.02096,0.01525 0.0067,0.0034 0.01297,0.0051 0.01891,0.0051 0.0059,0 0.01185,0.0029 0.01777,0.0086 0.0067,0.0034 0.01239,0.0086 0.01698,0.01555 0.0046,0.007 0.0094,0.01338 0.01446,0.01923 0.0081,0.0059 0.01557,0.01059 0.02246,0.01414 0.0063,0.0024 0.01353,0.0065 0.02173,0.01248 0.0076,0.0048 0.01434,0.01078 0.02022,0.01801 0.0069,0.0073 0.01356,0.01395 0.0199,0.02005 0.0074,0.0061 0.01448,0.01167 0.02125,0.0166 0.0078,0.005 0.01675,0.0081 0.02673,0.0093 0.0082,0.015 0.01786,0.02698 0.02899,0.03586 0.01049,0.0077 0.02,0.01727 0.02853,0.0289 0,0 0.04591,0 0.04591,0 0.01802,0.02613 0.04217,0.04602 0.07241,0.05941 0.0297,0.01215 0.05436,0.01826 0.07382,0.01826 0.0227,0 0.03656,-0.0048 0.04154,-0.01422 0.005,-0.0094 0.0058,-0.0201 0.0027,-0.03204 -0.002,-0.01185 -0.0058,-0.02297 -0.01122,-0.03336 -0.0051,-0.01161 -0.0067,-0.01994 -0.0046,-0.02504 0.0025,-0.01269 -0.0023,-0.02841 -0.01407,-0.04707 -0.01398,-0.0221 -0.03068,-0.04208 -0.05009,-0.06003 -0.01818,-0.01774 -0.03538,-0.03643 -0.05159,-0.05604 -0.0098,-0.01255 -0.01993,-0.02725 -0.03037,-0.04404 -0.01003,-0.01769 -0.02047,-0.03137 -0.03137,-0.04114 -0.01245,-0.01078 -0.02352,-0.02094 -0.03323,-0.03051 -0.01029,-0.01055 -0.01926,-0.02207 -0.0269,-0.03454 -0.0132,-0.0031 -0.02636,-0.0093 -0.03943,-0.01849 -0.01206,-0.0092 -0.0242,-0.01775 -0.03643,-0.02579 -0.0093,-0.01098 -0.01889,-0.02089 -0.02873,-0.02974 -0.0098,-0.0088 -0.02048,-0.01609 -0.03209,-0.0219 0,0 -0.01177,-0.02013 -0.01177,-0.02013 -0.0055,-0.0047 -0.01193,-0.0081 -0.01933,-0.01 -0.0065,-0.0019 -0.01335,-0.0052 -0.02054,-0.0099 0,0 -0.02004,-0.02093 -0.02004,-0.02093 0,0 -0.01871,0 -0.01871,0 0,0 -0.02148,-0.01925 -0.02148,-0.01925 0,0 -0.0199,0 -0.0199,0 -0.0042,-0.0027 -0.0088,-0.0064 -0.01394,-0.01088 -0.0047,-0.0054 -0.0097,-0.0081 -0.01499,-0.0081 0,0 -0.0079,0 -0.0079,0 -0.0062,-0.0018 -0.01223,-0.0031 -0.01797,-0.004 -0.0053,-0.0018 -0.01064,-0.0027 -0.01589,-0.0027 -0.0079,0 -0.01415,0.0022 -0.01882,0.0067 -0.0047,0.0045 -0.01074,0.0081 -0.01815,0.01081 0,0 -0.01994,-0.03877 -0.01994,-0.03877 -0.01867,8.84e-4 -0.03954,-0.0018 -0.06252,-0.0079 -0.02201,-0.0061 -0.04311,-0.0096 -0.06337,-0.01044 0,0 -0.01397,-0.0078 -0.01397,-0.0078 0,0 -0.0026,0 -0.0026,0 -0.0077,-0.0017 -0.01416,-8.6e-4 -0.01947,0.0026 -0.0045,0.0035 -0.011,0.0052 -0.01963,0.0052 -0.0043,0 -0.0079,-0.0013 -0.01079,-0.0039 -0.0029,-0.0026 -0.0065,-0.0039 -0.01076,-0.0039 -0.0052,0 -0.0066,0.0026 -0.0043,0.0078 -0.0026,0 -0.0051,-8.66e-4 -0.0076,-0.0026 -0.0016,-0.0017 -0.0037,-0.0035 -0.0061,-0.0052 -0.01118,0 -0.02139,0.0013 -0.03062,0.0039 -0.0093,0.0026 -0.0195,0.0039 -0.03071,0.0039 -7.09e-4,-0.0017 -0.002,-0.0039 -0.004,-0.0065 -0.0011,-0.0026 -0.0029,-0.0039 -0.0054,-0.0039 0,0 -0.0015,0.0026 -0.0015,0.0026 -0.01651,0.01472 -0.03292,0.02477 -0.04914,0.03005 -0.01574,0.0044 -0.03618,0.0093 -0.06134,0.01462 -0.0077,0.01794 -0.01585,0.03246 -0.02448,0.04346 -0.009,0.01016 -0.02607,0.01527 -0.05112,0.01527 -0.0015,0.0178 -0.0054,0.03393 -0.01176,0.04832 -0.0058,0.01357 -0.0073,0.03121 -0.0043,0.05309 -0.0087,0.002 -0.01584,0.006 -0.02149,0.01208 -0.005,0.0051 -0.0098,0.01116 -0.01429,0.01831 -0.0045,0.0072 -0.0097,0.01389 -0.01545,0.02011 -0.0049,0.0062 -0.011,0.01147 -0.01839,0.01566 0.0027,0.0063 0.0032,0.0116 0.0015,0.01584 -7.54e-4,0.0043 -0.002,0.0085 -0.0037,0.01279 -0.002,0.0032 -0.0039,0.007 -0.0056,0.01129 -0.002,0.0032 -0.0023,0.0076 -8.82e-4,0.01301 5.78e-4,0.0022 0.0016,0.0044 0.0032,0.0065 0.0016,0.0022 0.0026,0.0044 0.0032,0.0066 -0.0091,0.0022 -0.01563,0.0072 -0.01947,0.01491 -0.0029,0.0078 -0.0073,0.01562 -0.01313,0.0235 0.006,0.01587 0.0088,0.02904 0.0084,0.03943 -3.74e-4,0.01046 -0.0014,0.0204 -0.0031,0.02982 -9.75e-4,0.0083 -0.0018,0.01722 -0.0025,0.02681 -6.96e-4,0.0096 0.0026,0.02301 0.0098,0.04018 0,0 0.0032,0.01301 0.0032,0.01301 0.0012,0.005 0.003,0.0081 0.0054,0.0094 0.0034,0.0013 0.0068,0.0025 0.01027,0.0038 0.0034,0.0013 0.0063,0.0025 0.0087,0.0038 0.0034,0.0013 0.0058,0.0044 0.0071,0.0095 0.0013,0.0051 0.0012,0.0089 -2.48e-4,0.01143 -0.0046,0.0025 -0.0068,0.0064 -0.0066,0.01151 0,0 0.0029,0.0116 0.0029,0.0116 0,0 0.0053,0.02148 0.0053,0.02148 -0.0064,0 -0.01188,0.0013 -0.01655,0.0039 -0.0036,0.0026 -0.0045,0.0079 -0.0025,0.01584 0,0 0.0019,0.008 0.0019,0.008 0.0011,0.02689 0.0038,0.05422 0.0083,0.08202 0.0056,0.02827 0.01189,0.05703 0.01883,0.08629 0.0092,0.03881 0.02113,0.07928 0.03585,0.121509 0.01508,0.04327 0.02795,0.08678 0.03851,0.130515 0.0029,0.01196 0.0027,0.02141 -4.8e-4,0.02831 -0.002,0.0069 -0.0046,0.01388 -0.0079,0.02087 -0.0037,0.0053 -0.0071,0.0114 -0.01043,0.01845 -0.0021,0.0071 -0.0017,0.01685 0.0012,0.02937 0.005,0.02165 0.0115,0.04172 0.01954,0.06016 0.0094,0.01861 0.01887,0.03741 0.02845,0.05639 0.0097,0.01917 0.01879,0.03853 0.02735,0.05808 0.01,0.01975 0.01787,0.04171 0.02372,0.06594 0.0079,0.03277 0.01067,0.06085 0.0081,0.08402 -0.0031,0.02129 -0.0024,0.04714 0.002,0.07771 0.01053,0.01546 0.01942,0.0355 0.02669,0.06026 0.0068,0.02277 0.01327,0.04693 0.01937,0.07255 0.0062,0.02593 0.01285,0.05097 0.02005,0.07509 0.0073,0.02439 0.01696,0.04658 0.02905,0.06649 0.0024,0.01002 0.0028,0.01757 0.001,0.02262 -0.0023,0.0025 -0.0051,0.0063 -0.0083,0.01139 -0.0038,0.0026 -0.0066,0.0064 -0.0084,0.01145 -0.0018,0.0051 -0.0011,0.01408 0.0019,0.02695 6.1e-4,0.0026 0.0048,0.01427 0.01275,0.03514 0.0095,0.02108 0.02014,0.0437 0.03199,0.06789 0.01197,0.02445 0.02297,0.04778 0.03296,0.06996 0,0 0.02193,0.04216 0.02193,0.04216 0.0069,0.06031 0.01223,0.125172 0.01603,0.194893 0.0039,0.07176 0.01465,0.145649 0.03249,0.221762 0.0095,0.04063 0.02225,0.08017 0.03823,0.11857 0.01537,0.0354 0.02829,0.0749 0.03872,0.118658 0.01688,0.07079 0.03602,0.139591 0.05747,0.206186 0.021,0.06417 0.03965,0.129831 0.05588,0.197043 0.01242,0.05146 0.02215,0.10384 0.02911,0.157176 0.0071,0.05431 0.01586,0.111953 0.02638,0.173094 0.07225,0.155904 0.14013,0.304238 0.202812,0.443337 0.06547,0.145275 0.129283,0.336197 0.192437,0.580198 0,0 0.01011,0.03908 0.01011,0.03908 0.117475,0.181315 0.231488,0.310942 0.339055,0.382933 0.01061,0.03652 0.01414,0.06599 0.01047,0.08824 -0.0037,0.02238 -1.43e-4,0.05243 0.01072,0.09033 0,0 0.0209,0.04597 0.0209,0.04597 0.02059,0 0.04184,0.01544 0.06387,0.04652 0.02481,0.03132 0.04839,0.06687 0.07076,0.106741 0.0226,0.04028 0.04666,0.08505 0.07224,0.134474 0.02591,0.05005 0.05354,0.09647 0.08289,0.139116 0.02693,0.04312 0.04735,0.06049 0.06103,0.05179 0.01364,-0.0087 0.03416,0.0086 0.06181,0.05245 0,0 0.06026,0.188949 0.06026,0.188949 0.02889,0.04626 0.05943,0.08833 0.09158,0.126073 0.02931,0.02852 0.06114,0.08614 0.09585,0.174031 0.03709,-0.01967 0.07363,-0.01473 0.109908,0.01491 0.03651,0.02979 0.07381,0.06982 0.11204,0.120389 0.03867,0.05114 0.07998,0.11329 0.124127,0.186885 0.04487,0.0748 0.09662,0.150854 0.155417,0.228186 0,0 0.07274,0.03351 0.07274,0.03351 0.02794,0 0.04958,-0.01679 0.06481,-0.0502 0.01512,-0.03317 0.03531,-0.06064 0.06056,-0.0825 0.06023,0.09918 0.120212,0.200505 0.179928,0.304055 0.05951,0.09396 0.113767,0.141645 0.1619,0.141645 0.06964,0.19553 0.131938,0.341018 0.185481,0.431698 0.06336,0.105653 0.134427,0.199933 0.213127,0.282146 -0.01829,-0.109312 -0.0069,-0.163111 0.03375,-0.163111 0.06782,0 0.109447,-0.01336 0.124816,-0.03996 0.02448,-0.01334 0.03464,-0.03975 0.03053,-0.07903 0.0051,-0.02606 0.0055,-0.05847 0.0014,-0.0971 0.0017,-0.02556 0.01329,-0.05101 0.03471,-0.07634 0,0 0.119745,0.173434 0.119745,0.173434 0,0 0.05028,0 0.05028,0 0.04693,0 0.07405,-0.05201 0.08127,-0.15445 0.01643,-0.08793 0.05221,-0.131318 0.107582,-0.131318 0.0098,0 0.02429,0.0062 0.0436,0.01867 0.01936,0.01248 0.0309,0.0062 0.03457,-0.01867 0,0 -0.02684,-0.109859 -0.02684,-0.109859 -0.01174,-0.04803 -0.02176,-0.0956 -0.0301,-0.142695 -0.0083,-0.04664 -0.01345,-0.08707 -0.01563,-0.121458 -0.0022,-0.03413 0.0014,-0.05111 0.01078,-0.05111 0.01558,0 0.03105,0.0057 0.04642,0.01709 0.01541,0.01142 0.03698,0.0285 0.06478,0.0513 -0.03883,-0.102064 -0.06786,-0.190955 -0.08748,-0.267358 -0.02505,-0.0858 -0.03963,-0.154344 -0.04405,-0.206378 0.02925,0.02073 0.06002,0.04679 0.09236,0.07828 0.03257,0.03168 0.058,0.04761 0.07614,0.04761 0,0 0.01393,-0.03178 0.01393,-0.03178 -0.076,-0.125018 -0.119761,-0.221588 -0.132692,-0.291433 -0.0098,-0.06874 -0.0043,-0.112366 0.01628,-0.131625 0.01724,0 0.02319,-0.0096 0.01788,-0.0287 -0.0079,-0.02852 -0.01593,-0.05215 -0.024,-0.07097 -0.01062,-0.02806 -0.01847,-0.0513 -0.02361,-0.06982 -0.01045,-0.0276 -0.0086,-0.04134 0.0054,-0.04134 0,0 0.04144,0.02753 0.04144,0.02753 -0.06973,-0.109008 -0.115353,-0.18895 -0.137992,-0.241408 -0.02238,-0.0518 -0.03424,-0.09022 -0.0358,-0.115629 -0.0039,-0.03364 -0.0039,-0.06284 -5.7e-5,-0.08771 0.0038,-0.02471 -0.0012,-0.0615 -0.01472,-0.110037 -0.03345,-0.06379 -0.07496,-0.134354 -0.124196,-0.211287 -0.05027,-0.08288 -0.07989,-0.142052 -0.08957,-0.178574 0,0 0.05249,0 0.05249,0 -0.03389,-0.07911 -0.07688,-0.156591 -0.128681,-0.232482 -0.05248,-0.08102 -0.09063,-0.150465 -0.115006,-0.208935 0,0 0.0109,-0.06701 0.0109,-0.06701 0,0 -0.04709,-0.07506 -0.04709,-0.07506 -0.03467,-0.05525 -0.06994,-0.109638 -0.105783,-0.163172 -0.03529,-0.0527 -0.0649,-0.101735 -0.08898,-0.147234 0.05729,0 0.03589,-0.07815 -0.06076,-0.229082 0,0 2.8e-5,1.14e-4 2.8e-5,1.14e-4 z m -2.511493,-1.353192 c 0.0042,0.01316 0.0056,0.02308 0.0043,0.02971 0,0 -0.03547,0 -0.03547,0 -7.09e-4,-0.01324 -0.01066,-0.02642 -0.02977,-0.03953 -0.005,-0.01629 -0.0051,-0.02763 -3.92e-4,-0.03409 0.0047,-0.0064 0.0095,-0.0097 0.01449,-0.0097 0.0083,0 0.01646,0.0048 0.02449,0.0145 0.0097,0.0097 0.01718,0.02272 0.02234,0.03907 0,0 2e-6,-1e-5 2e-6,-1e-5 z"
                 style="font-style:normal;font-variant:normal;font-weight:normal;font-stretch:normal;font-family:'Military Document AOE';-inkscape-font-specification:'Military Document AOE';fill:#d4aa00;stroke-width:0.26458332"
                 id="path25"
                 inkscape:original-d="m 44.631458,93.019826 q 0,-0.06718 -0.03101,-0.165364 -0.03101,-0.103353 -0.07235,-0.206706 -0.04134,-0.108521 -0.09302,-0.201538 -0.04651,-0.09819 -0.08785,-0.160197 -0.02584,-0.01034 -0.04651,-0.0155 -0.02067,-0.0052 -0.04651,-0.0052 -0.07235,0 -0.124024,0.01034 -0.04651,0.01034 -0.10852,-0.02067 -0.07235,0.103353 -0.186036,0.170532 -0.10852,0.06201 -0.186035,0.160197 -0.09819,0.03617 -0.165364,0.113688 -0.06718,0.07235 -0.124024,0.160197 -0.05168,0.08785 -0.103353,0.180868 -0.04651,0.08785 -0.113688,0.160197 -0.02584,-0.02584 -0.05684,-0.02584 -0.02584,0 -0.03101,0.01033 -0.0052,0.0052 -0.02067,-0.02067 h -0.07235 v -0.04134 q -0.02584,0 -0.05684,-0.0052 -0.03101,-0.0052 -0.06201,-0.0052 -0.160197,0 -0.28422,0.04651 -0.118856,0.04134 -0.191203,0.04134 -0.04651,0 -0.08785,-0.0155 -0.04134,-0.02067 -0.09302,-0.02067 -0.0155,0 -0.03617,0.01034 -0.0155,0.0052 -0.02584,0.02584 -0.08785,-0.06718 -0.165365,-0.144694 -0.07751,-0.07751 -0.165365,-0.144694 -0.01033,-0.03101 -0.04134,-0.05684 -0.03101,-0.02584 -0.03101,-0.05684 0,-0.103353 -0.03101,-0.180868 -0.02584,-0.07751 -0.04134,-0.180867 -0.0155,-0.03101 -0.06718,-0.03101 -0.02584,0 -0.05168,0.01033 -0.02067,0.01033 -0.05168,0.01033 -0.01033,0 -0.01033,-0.02067 l -0.02067,-0.06201 q 0,-0.04134 0.02584,-0.07752 0.02584,-0.03617 0.06718,-0.05168 -0.03101,-0.03101 -0.03101,-0.08268 0,-0.04134 0.03101,-0.07752 0.03101,-0.04134 0.03101,-0.113688 0,-0.01033 -0.0052,-0.02584 0,-0.0155 -0.0155,-0.0155 -0.03617,0 -0.05684,-0.04651 -0.02067,-0.05168 -0.03617,-0.113688 -0.01034,-0.06718 -0.0155,-0.129191 -0.0052,-0.06718 -0.0052,-0.103353 0,-0.05684 0.0052,-0.124024 0.01033,-0.06718 0.05684,-0.10852 0,-0.01033 0,-0.03617 0,-0.02584 0,-0.05168 0.0052,-0.03101 0.01034,-0.04651 0.01033,-0.02067 0.03101,-0.0155 -0.03101,-0.103353 -0.07235,-0.201538 -0.04134,-0.09819 -0.04134,-0.211873 0,-0.08785 0.02584,-0.170532 0.02584,-0.08785 0.02584,-0.1757 0,-0.113688 -0.04134,-0.196371 -0.04134,-0.08785 -0.04134,-0.186035 0,-0.04134 0.0155,-0.06718 0.0155,-0.02584 0.0155,-0.06201 0.0052,-0.02067 0,-0.02584 -0.0052,-0.01033 -0.01033,-0.0155 -0.0052,-0.01033 -0.0052,-0.0155 0,-0.0052 0.0155,-0.0155 0,-0.04651 -0.0155,-0.09819 -0.0155,-0.05168 -0.0155,-0.06201 0,-0.01033 0.0155,-0.0155 0.0155,-0.0052 0.0155,-0.0155 0,-0.07235 -0.03101,-0.134358 0,-0.03617 0.0155,-0.06201 0.0155,-0.02584 0.04651,-0.02584 -0.01034,-0.0155 -0.02067,-0.02067 -0.01034,-0.0052 -0.01034,-0.02067 0,-0.03101 0.0052,-0.07235 0.01034,-0.04134 -0.0052,-0.05684 0.07235,-0.04651 0.09819,-0.124023 0.02584,-0.08268 0.09302,-0.139526 v -0.325562 q 0.02584,-0.03101 0.04134,-0.07235 0.02067,-0.04134 0.06201,-0.06718 v -0.05168 q 0,-0.04134 -0.01033,-0.08268 -0.0052,-0.04651 0.01033,-0.08785 0.0155,0 0.04651,-0.0052 0.03617,-0.01033 0.03617,-0.03617 0,-0.0155 -0.0155,-0.03101 -0.01033,-0.0155 -0.02584,-0.03101 0,-0.04651 0.03101,-0.07751 h 0.01034 q 0.04134,0 0.06718,0.02067 0.03101,0.02067 0.06201,0.02067 0.04651,0 0.05684,-0.02067 0.0155,-0.02584 0.0155,-0.05168 0.0052,-0.03101 0.01033,-0.05168 0.0052,-0.02584 0.03617,-0.03101 h 0.253214 q 0,-0.0155 0,-0.05684 0,-0.04134 0.03101,-0.05168 0.02067,0.04134 0.07235,0.04134 0.04134,0 0.07235,-0.02067 0.03617,-0.02067 0.07751,-0.02067 0.07235,0 0.139526,0.02067 0.07235,0.02067 0.144694,0.02067 h 0.08785 q -0.0155,0.03617 -0.01033,0.05684 0.01033,0.0155 0.02584,0.02584 0.0155,0.01034 0.03101,0.02067 0.0155,0.01033 0.0155,0.03617 0.04651,-0.0052 0.07751,0.01034 0.03101,0.0155 0.05168,0.04134 0.02584,0.02067 0.04651,0.05168 0.02067,0.02584 0.04651,0.04651 0.02584,0.0155 0.05684,0.0155 0.03101,0 0.04651,0.02584 0.02584,0.0155 0.03101,0.04651 0.0052,0.03101 0.0155,0.05684 0.02584,0.02584 0.05168,0.04134 0.02584,0.01034 0.05168,0.03617 0.02584,0.02067 0.03617,0.05168 0.0155,0.03101 0.03101,0.05684 0.02067,0.02584 0.04134,0.04651 0.02584,0.02067 0.07235,0.02584 0,0.06201 0.03101,0.09819 0.03101,0.03101 0.04134,0.07751 h 0.149862 q 0.0155,0.103353 0.124023,0.155029 0.108521,0.04651 0.201538,0.04651 0.108521,0 0.160197,-0.03617 0.05168,-0.03617 0.07235,-0.08268 0.02584,-0.04651 0.03101,-0.08785 0.01034,-0.04651 0.03617,-0.06718 0.05168,-0.05168 0.05168,-0.129191 0,-0.09302 -0.04134,-0.170532 -0.03617,-0.07752 -0.05684,-0.165365 -0.01033,-0.05684 -0.01033,-0.134358 0.0052,-0.08268 -0.02067,-0.129192 -0.03101,-0.05168 -0.05168,-0.09819 -0.02067,-0.05168 -0.02067,-0.113688 -0.06201,-0.0155 -0.103353,-0.06201 -0.03617,-0.04651 -0.07751,-0.08785 -0.0155,-0.05684 -0.04134,-0.103352 -0.02584,-0.04651 -0.07235,-0.07752 v -0.07235 q -0.0155,-0.02584 -0.05168,-0.03617 -0.03101,-0.01033 -0.05684,-0.03617 l -0.03101,-0.07751 h -0.07235 l -0.04134,-0.07235 h -0.07751 q -0.0155,-0.0155 -0.03101,-0.04134 -0.01033,-0.03101 -0.04134,-0.03101 h -0.03101 q -0.03101,-0.01033 -0.06201,-0.0155 -0.02584,-0.01034 -0.05684,-0.01034 -0.04651,0 -0.08785,0.02584 -0.04134,0.02584 -0.09302,0.04134 v -0.149861 q -0.113688,0.0052 -0.232544,-0.03101 -0.113688,-0.03617 -0.232544,-0.04134 l -0.04134,-0.03101 h -0.01033 q -0.04134,-0.01033 -0.08268,0.01033 -0.03617,0.02067 -0.08785,0.02067 -0.02584,0 -0.03617,-0.0155 -0.01033,-0.0155 -0.03617,-0.0155 -0.03101,0 -0.03101,0.03101 -0.0155,0 -0.02584,-0.01034 -0.0052,-0.01033 -0.0155,-0.02067 -0.06718,0 -0.129191,0.0155 -0.06201,0.0155 -0.129192,0.0155 0,-0.01034 -0.0052,-0.02584 0,-0.0155 -0.0155,-0.0155 l -0.01033,0.01033 q -0.134359,0.08785 -0.24288,0.118856 -0.103352,0.02584 -0.263549,0.05684 -0.08268,0.103353 -0.15503,0.165364 -0.07235,0.05684 -0.217041,0.05684 -0.04134,0.09819 -0.103353,0.1757 -0.05684,0.07235 -0.07751,0.186035 -0.05168,0.01034 -0.09302,0.04134 -0.03617,0.02584 -0.07235,0.06201 -0.03617,0.03617 -0.07751,0.06718 -0.03617,0.03101 -0.08268,0.05168 0.0052,0.03101 -0.01034,0.05168 -0.01033,0.02067 -0.02584,0.04134 -0.0155,0.0155 -0.03101,0.03617 -0.0155,0.0155 -0.0155,0.04134 0,0.01034 0.0052,0.02067 0.0052,0.01033 0.0052,0.02067 -0.05168,0.01034 -0.08268,0.04651 -0.02584,0.03617 -0.06718,0.07235 0.01033,0.07235 -0.0052,0.118856 -0.0155,0.04651 -0.03617,0.08785 -0.0155,0.03617 -0.03101,0.07752 -0.0155,0.04134 0,0.113688 v 0.03617 q 0,0.02067 0.01033,0.02584 0.0155,0.0052 0.03101,0.01034 0.0155,0.0052 0.02584,0.01033 0.0155,0.0052 0.0155,0.02584 0,0.02067 -0.01033,0.03101 -0.02584,0.01033 -0.03101,0.03101 0,0.0155 0,0.03101 v 0.05684 q -0.03101,0 -0.05684,0.01034 -0.02067,0.01033 -0.02067,0.04134 v 0.02067 q -0.02584,0.103353 -0.03617,0.206706 -0.0052,0.103352 -0.0052,0.206705 0,0.134359 0.02067,0.273885 0.02067,0.139527 0.02067,0.273886 0,0.03617 -0.02067,0.05684 -0.0155,0.02067 -0.03617,0.04134 -0.02067,0.0155 -0.04134,0.03617 -0.0155,0.02067 -0.0155,0.05684 0,0.06201 0.0155,0.113688 0.02067,0.05168 0.04134,0.103353 0.02067,0.05168 0.03617,0.103353 0.02067,0.05168 0.02067,0.113688 0,0.08268 -0.03101,0.139527 -0.03101,0.05168 -0.04134,0.124023 0.02584,0.03617 0.03101,0.09302 0.0052,0.05168 0.0052,0.10852 0,0.05684 0.0052,0.108521 0.0052,0.05168 0.03101,0.09302 0,0.02067 -0.01033,0.03101 -0.01033,0.0052 -0.02584,0.0155 -0.0155,0.0052 -0.02584,0.0155 -0.01034,0.01034 -0.01034,0.03617 0,0.0052 0.01034,0.04651 0.0155,0.04134 0.03617,0.08785 0.02067,0.04651 0.03617,0.08785 0.02067,0.04134 0.02584,0.05168 -0.02584,0.10852 -0.06718,0.227376 -0.04134,0.118856 -0.04134,0.237711 0,0.06201 0.02067,0.118856 0.02067,0.05168 0.02067,0.113688 0,0.09819 0.0155,0.186036 0.0155,0.08268 0.0155,0.165364 0,0.06201 -0.0155,0.124024 -0.0155,0.06201 -0.02584,0.129191 0.08785,0.165364 0.155029,0.299723 0.06718,0.134359 0.06718,0.335897 v 0.02067 q 0.149861,0.139527 0.330729,0.191203 0,0.02584 -0.02067,0.04134 -0.02067,0.0155 -0.02067,0.04134 l 0.01034,0.02067 q 0.04134,0 0.06718,0.02067 0.03101,0.02067 0.05168,0.04651 0.02067,0.02584 0.04134,0.05684 0.02067,0.03101 0.05168,0.05684 0.02584,0.02584 0.05684,0.02067 0.03101,-0.0052 0.05684,0.02067 v 0.07235 q 0.02584,0.02584 0.06201,0.04651 0.03617,0.0155 0.04651,0.06201 0.07751,-0.01033 0.124023,0.0052 0.04651,0.0155 0.08268,0.04134 0.03617,0.02584 0.06718,0.06201 0.03101,0.03617 0.08268,0.07235 l 0.06718,0.01033 q 0.04651,0 0.09302,-0.0155 0.04651,-0.0155 0.103353,-0.02584 0.03617,0.04651 0.06718,0.09302 0.03617,0.04134 0.113689,0.04134 -0.0155,0.08268 0.01033,0.118856 0.03101,0.04134 0.09819,0.07235 0.04134,-0.04134 0.103353,-0.04134 0.103353,0 0.144694,-0.01033 0.04651,-0.0052 0.06718,-0.02067 0.02584,-0.01033 0.04651,-0.02584 0.02067,-0.01033 0.07235,-0.02067 l 0.04134,0.04651 h 0.05168 q 0.07235,0 0.160197,-0.04134 0.09302,-0.03617 0.180867,-0.03617 0.0155,0 0.03617,0.0052 0.02067,0.0052 0.04651,-0.0052 0.01034,-0.01034 0.03101,-0.03101 0.02067,-0.02067 0.04651,-0.04134 0.02584,-0.02067 0.05168,-0.03617 0.02584,-0.0155 0.04134,-0.0155 0.02584,0 0.04134,0.0052 0.0155,0.0052 0.04134,0.0155 0.02584,-0.04651 0.06201,-0.08268 0.03617,-0.04134 0.07751,-0.06718 0.03101,0.01033 0.05684,0.02584 0.02584,0.0155 0.05684,0.0155 l 0.03617,-0.01033 q -0.01033,-0.06201 0.03617,-0.09819 0.05168,-0.03617 0.108521,-0.04651 0.03101,0 0.04134,-0.01033 0.0155,-0.0155 0.02067,-0.02584 0.01034,-0.0155 0.02067,-0.02584 0.01034,-0.0155 0.03617,-0.0155 l 0.03101,0.01034 q -0.01034,-0.06201 0.0052,-0.09302 0.0155,-0.03101 0.04134,-0.04651 0.03101,-0.02067 0.06718,-0.03617 0.03617,-0.0155 0.06718,-0.04651 0.01033,-0.04134 0.0052,-0.09302 0,-0.05684 0.02584,-0.08268 h 0.07235 q 0.03101,-0.05684 0.02067,-0.113688 -0.0052,-0.06201 0.02067,-0.108521 l 0.07751,-0.03617 v -0.04134 q 0,-0.04651 -0.0052,-0.09302 -0.0052,-0.04651 0.0052,-0.08785 0.134359,0 0.134359,-0.144694 z m -3.374471,-1.121378 q 0,0.02067 -0.01034,0.03101 h -0.07235 q 0.01034,-0.02067 -0.03617,-0.04134 0,-0.02584 0.02067,-0.03617 0.02067,-0.01033 0.03617,-0.01033 0.02584,0 0.04134,0.0155 0.02067,0.0155 0.02067,0.04134 z"
                 inkscape:connector-curvature="0" />
            </g>
            <text
               xml:space="preserve"
               style="font-style:normal;font-variant:normal;font-weight:normal;font-stretch:normal;font-size:27.29808998px;line-height:1.25;font-family:sans-serif, Dual;-inkscape-font-specification:'sans-serif, Dual';letter-spacing:0px;word-spacing:0px;fill:#ff00cc;fill-opacity:1;stroke:#333333;stroke-width:0.25;stroke-miterlimit:4;stroke-dasharray:none;stroke-opacity:1"
               x="13.053535"
               y="106.38736"
               id="text42"
               transform="scale(0.83278425,1.2007912)"><tspan
                 sodipodi:role="line"
                 id="tspan40"
                 x="13.053535"
                 y="106.38736"
                 style="fill:#ff00cc;stroke:#333333;stroke-width:0.25;stroke-miterlimit:4;stroke-dasharray:none;stroke-opacity:1">FLAT</tspan></text>
          </g>
        </g>
      </g>
    </g>
  </g>
</svg>
